<svg xmlns="http://www.w3.org/2000/svg" width="128" height="128"><defs><style>.a{fill:#414042}.b{fill:#00a79d}</style></defs><path class="a" d="M17.21 63.66v14.23H14.5l-7.09-8.64v8.64H4.16V63.66h2.72L14 72.3v-8.64zM30 71.65v6.24h-3v-1.36a3.59 3.59 0 01-3.34 1.52c-2.56 0-4.08-1.42-4.08-3.31s1.36-3.27 4.69-3.27h2.52c0-1.36-.81-2.16-2.52-2.16a5.25 5.25 0 00-3.15 1l-1.14-2.21a8.37 8.37 0 014.72-1.33c3.4.02 5.3 1.57 5.3 4.88zm-3.17 2.79v-1.12h-2.14c-1.49 0-2 .55-2 1.28s.67 1.32 1.79 1.32a2.33 2.33 0 002.38-1.48zM40 77.36a4.5 4.5 0 01-2.58.69c-2.58 0-4.08-1.32-4.08-3.92v-4.49H31.6V67.2h1.69v-2.66h3.17v2.66h2.72v2.44h-2.72v4.45a1.27 1.27 0 001.36 1.44 2.16 2.16 0 001.28-.4zM52.76 67v10.89h-3v-1.3a4.39 4.39 0 01-3.39 1.46c-2.75 0-4.68-1.54-4.68-4.91V67h3.17v5.71c0 1.83.82 2.64 2.22 2.64s2.52-.93 2.52-3V67zm9.74-.21v2.93h-.71c-1.75 0-2.91 1-2.91 3v5.16h-3.17V67h3v1.4a4.4 4.4 0 013.79-1.61zm12.44 6.53h-8.27a2.91 2.91 0 003.13 2.19 3.69 3.69 0 002.74-1.05l1.69 1.83a5.76 5.76 0 01-4.52 1.76c-3.78 0-6.23-2.37-6.23-5.63a5.56 5.56 0 015.83-5.63A5.42 5.42 0 0175 72.46c0 .25 0 .59-.06.86zm-8.31-1.85H72a2.73 2.73 0 00-5.38 0z"/><path class="b" d="M77.81 62.81h1v15.08h-1zm14.26 10.02H83a4.53 4.53 0 007.88 2.74l.59.68a5.08 5.08 0 01-4 1.72A5.21 5.21 0 0182 72.59a5.08 5.08 0 015-5.39 5 5 0 015.06 5.35c.03.08.01.18.01.28zM83 72h8.1a4.07 4.07 0 00-8.1 0zm19.6-.84v6.73h-1V76a4.07 4.07 0 01-3.82 2c-2.38 0-3.82-1.22-3.82-3 0-1.6 1-3 4-3h3.64v-.86c0-2-1.08-3-3.15-3a5.46 5.46 0 00-3.66 1.35l-.51-.73a6.45 6.45 0 014.25-1.51c2.61-.05 4.07 1.29 4.07 3.91zm-1 3.6v-2H98c-2.19 0-3 .91-3 2.13 0 1.39 1.08 2.24 3 2.24a3.63 3.63 0 003.59-2.37zm13.51-7.48l-4.8 10.61h-1l-4.81-10.61h1.07l4.23 9.49 4.27-9.49zM126 72.83h-9.12a4.53 4.53 0 007.88 2.74l.59.68a5.09 5.09 0 01-4 1.72 5.21 5.21 0 01-5.47-5.38 5.08 5.08 0 015.08-5.39 5 5 0 015.04 5.35v.28zm-9.1-.79h8.1a4.07 4.07 0 00-8.13 0z"/><path class="a" d="M25.55 85.29H26v5.56h3.43v.39h-3.88zM32.37 89a2.22 2.22 0 112.22 2.25A2.16 2.16 0 0132.37 89zm4 0a1.79 1.79 0 10-1.78 1.87A1.75 1.75 0 0036.37 89zm6.4-2.23v.42h-.1c-1 0-1.57.66-1.57 1.75v2.31h-.43v-4.44h.41v1a1.68 1.68 0 011.69-1.04zm7.42 2.36h-3.81a1.79 1.79 0 001.88 1.77 1.81 1.81 0 001.42-.62l.24.28a2.13 2.13 0 01-1.67.72A2.18 2.18 0 0146 89a2.13 2.13 0 012.13-2.26A2.1 2.1 0 0150.2 89s-.01.08-.01.13zm-3.8-.33h3.4a1.7 1.7 0 00-3.4 0zm14.97-.15v2.59h-.43v-2.55c0-1-.51-1.53-1.38-1.53a1.56 1.56 0 00-1.63 1.72v2.36h-.42v-2.55c0-1-.52-1.53-1.39-1.53a1.56 1.56 0 00-1.62 1.72v2.36h-.42v-4.43h.4v1a1.77 1.77 0 011.7-1 1.59 1.59 0 011.63 1.07 1.88 1.88 0 011.79-1.07 1.67 1.67 0 011.77 1.84zm4.1-3.36h1.37v5.95h-1.37zM75.68 89a2.22 2.22 0 01-2.28 2.35 1.79 1.79 0 01-1.4-.59v2.13h-1.3v-6.22H72v.53a1.8 1.8 0 011.44-.6 2.23 2.23 0 012.24 2.4zm-1.34 0A1.17 1.17 0 1072 89a1.17 1.17 0 102.33 0zm4.33 1.82l.44-.95a3.17 3.17 0 001.59.44c.61 0 .84-.16.84-.42 0-.75-2.76 0-2.76-1.81 0-.86.78-1.48 2.11-1.48a3.81 3.81 0 011.76.4l-.44 1a2.57 2.57 0 00-1.32-.34c-.59 0-.85.18-.85.42 0 .78 2.77 0 2.77 1.83 0 .85-.79 1.45-2.16 1.45a3.9 3.9 0 01-1.98-.54zm12.11-4.15v4.57h-1.26v-.54a1.85 1.85 0 01-1.42.61 1.82 1.82 0 01-2-2.06v-2.58h1.33v2.39c0 .77.34 1.11.93 1.11s1-.4 1-1.24v-2.26zm11.5 1.96v2.61H101v-2.41c0-.74-.33-1.08-.87-1.08s-1 .38-1 1.2v2.29h-1.38v-2.41c0-.74-.32-1.08-.87-1.08s-1 .38-1 1.2v2.29h-1.33v-4.57h1.27v.53a1.85 1.85 0 011.43-.6 1.72 1.72 0 011.51.75 2.06 2.06 0 011.65-.75 1.77 1.77 0 011.87 2.03zM63.82 45.52s7.31-9.47-6-20c0 0-11.69 13.2 3.68 21.27 0 0-3.19-7.81-2.28-11.8-.01.01 2.36 8.47 4.6 10.53z"/><path class="b" d="M61.59 53.37s-2-11.79-18.78-9.11c0 0 1.8 17.54 18.14 11.7 0 0-7.9-3-10.22-6.33 0 0 7.83 4 10.86 3.74z"/><path class="a" d="M64.24 53.9S62.69 42 79.5 39.66c0 0 3.45 17.29-13.89 16.53 0 0 6.68-5.15 7.91-9.06 0 0-6.31 6.12-9.28 6.77z"/><path d="M49.18 32.04h-23.8v18.8m74.22 0v-18.8H69.58m-44.2 64.78v6.88H99.6v-6.88" fill="none" stroke="#414042" stroke-linecap="round" stroke-linejoin="round" stroke-width="1.5"/></svg>