<svg xmlns="http://www.w3.org/2000/svg" width="128" height="128"><defs><style>.a{fill:#414042}.b{fill:#00a79d}.c{fill:none;stroke-linecap:round;stroke-linejoin:round;stroke:#00a79d;stroke-width:.53px}</style></defs><path class="a" d="M45 41.81h3.89v26.86H61.7v3.26H45zm40.25 16H73.54v10.86h13v3.26H69.65V41.81h16.27v3.27H73.54v9.51h11.71z"/><path class="b" d="M48.34 106.36l-3.13 9.47h-4l10.21-30.11h4.69l10.28 30.11h-4.15L59 106.36zm9.87-3l-2.94-8.67c-.67-2-1.12-3.75-1.57-5.49h-.09c-.44 1.79-.94 3.62-1.52 5.45l-3 8.71zm12.6-17.64H87V89H74.7v10h11.39v3.22H74.7v13.62h-3.89z"/><path class="c" d="M57.09 16.36s9.68 6.64 3.71 31.5M55.05 25s8.26 5.71 7.35 13.53m5.73-20.78S63 20.07 62.57 29.41"/><path class="b" d="M55.14 22.05C58.24 24.11 60 27 59 28.41s-4.26 1-7.36-1.1-4.84-4.9-3.88-6.35S52 20 55.14 22.05zm13.58-7.44c-3.22 1.86-5.12 4.6-4.25 6.11s4.2 1.21 7.42-.67 5.12-4.6 4.24-6.11-4.19-1.2-7.41.67zm-5.15-8.27C62 9.7 61.93 13 63.5 13.79s4.14-1.36 5.76-4.72 1.64-6.68.08-7.44S65.19 3 63.57 6.34z"/><path class="c" d="M71.82 24.92s-8 3.85-9.55 14.77"/><path class="a" d="M57.69 12.59c2.53 2.74 3.55 5.91 2.27 7.09s-4.36-.07-6.89-2.8S49.52 11 50.8 9.79s4.37.07 6.89 2.8zM72 21.4c-3.22 1.87-5.12 4.61-4.25 6.11s4.2 1.21 7.41-.66 5.13-4.61 4.25-6.11-4.21-1.21-7.41.66z"/><path class="c" d="M67.88 5.51S61 14.43 61.84 25"/><path stroke="#414042" stroke-width="1.5" fill="none" stroke-linecap="round" stroke-linejoin="round" d="M89.06 18.89h7.83v103.69h-65.1V18.89h8.38"/></svg>