<svg xmlns="http://www.w3.org/2000/svg" width="128" height="128"><path d="M3.89 85.35c0-2 0-3.61-.16-5.2h3.09L7 83.32h.1a7.05 7.05 0 016.34-3.6c2.66 0 6.78 1.58 6.78 8.16v11.45h-3.49v-11c0-3.09-1.15-5.67-4.44-5.67a5.13 5.13 0 00-4.91 5.14v11.53H3.89zM36.5 99.33l-.28-2.41h-.11a7.17 7.17 0 01-5.87 2.85 5.46 5.46 0 01-5.86-5.51c0-4.63 4.12-7.17 11.53-7.13v-.4c0-1.58-.44-4.44-4.36-4.44a9.55 9.55 0 00-5 1.43l-.8-2.3a11.93 11.93 0 016.3-1.7c5.87 0 7.29 4 7.29 7.84v7.18a26.65 26.65 0 00.32 4.59zm-.5-9.78c-3.81-.08-8.13.59-8.13 4.32a3.09 3.09 0 003.29 3.32A4.77 4.77 0 0035.79 94a3.55 3.55 0 00.2-1.1zm13-14.9v5.5h5v2.66h-5v10.34c0 2.38.67 3.73 2.62 3.73a7.71 7.71 0 002-.24l.16 2.61a8.53 8.53 0 01-3.1.48A4.83 4.83 0 0147 98.26c-1-1-1.35-2.73-1.35-5V82.81h-3v-2.66h3v-4.59zM74 94.1c0 2 0 3.73.16 5.23h-3.11l-.2-3.13h-.08a7.2 7.2 0 01-6.34 3.57c-3 0-6.62-1.66-6.62-8.4V80.15h3.49v10.62c0 3.65 1.11 6.11 4.28 6.11a4.92 4.92 0 004.92-5V80.15H74zm5.76-7.96c0-2.26 0-4.2-.15-6h3l.12 3.77h.15a5.77 5.77 0 015.32-4.2 3.78 3.78 0 011 .12v3.29a5.26 5.26 0 00-1.15-.12c-2.46 0-4.2 1.86-4.68 4.48a9.66 9.66 0 00-.16 1.62v10.23h-3.45zm23.38 13.19l-.27-2.41h-.12a7.16 7.16 0 01-5.87 2.85A5.46 5.46 0 0191 94.26c0-4.63 4.12-7.17 11.53-7.13v-.4c0-1.58-.44-4.44-4.36-4.44a9.55 9.55 0 00-5 1.43l-.8-2.3a11.93 11.93 0 016.3-1.7c5.87 0 7.3 4 7.3 7.84v7.18a27.76 27.76 0 00.31 4.59zm-.51-9.78c-3.81-.08-8.13.59-8.13 4.32a3.09 3.09 0 003.29 3.32 4.76 4.76 0 004.64-3.19 3.55 3.55 0 00.2-1.1zm8.99-18.35h3.49v28.13h-3.49z" fill="#00a79d"/><path d="M30.54 108.69H31v6.14h3.8v.43h-4.26zm7.53 4.12a2.45 2.45 0 112.45 2.48 2.38 2.38 0 01-2.45-2.48zm4.42 0a2 2 0 10-2 2.06 2 2 0 002-2.06zm7.06-2.49v.46h-.11a1.7 1.7 0 00-1.74 1.94v2.55h-.47v-4.9h.45v1.07a1.87 1.87 0 011.87-1.12zm8.2 2.6h-4.22a2 2 0 002.08 2 2 2 0 001.56-.68l.28.31a2.37 2.37 0 01-1.85.79 2.4 2.4 0 01-2.53-2.48 2.35 2.35 0 012.35-2.49 2.32 2.32 0 012.34 2.47s-.01.03-.01.08zm-4.21-.37h3.76a1.88 1.88 0 00-3.76 0zm16.53-.15v2.86h-.47v-2.83c0-1.1-.57-1.69-1.53-1.69a1.73 1.73 0 00-1.79 1.91v2.61h-.47v-2.83c0-1.1-.57-1.69-1.53-1.69a1.72 1.72 0 00-1.79 1.91v2.61H62v-4.9h.45v1a2 2 0 011.88-1.09 1.74 1.74 0 011.79 1.18 2.07 2.07 0 012-1.18 1.84 1.84 0 011.95 2.13zm4.53-3.71h1.52v6.57H74.6zm11.28 4.04a2.45 2.45 0 01-2.51 2.6 1.93 1.93 0 01-1.52-.61v2.36h-1.47v-6.87h1.4v.58a2 2 0 011.59-.66 2.46 2.46 0 012.51 2.6zm-1.48 0a1.29 1.29 0 10-1.29 1.4 1.28 1.28 0 001.29-1.4zm4.78 2.06l.49-1.05a3.44 3.44 0 001.75.49c.68 0 .93-.18.93-.46 0-.83-3 0-3-2 0-1 .87-1.64 2.34-1.64a4.06 4.06 0 011.94.45l-.49 1a2.79 2.79 0 00-1.45-.38c-.66 0-.94.21-.94.47 0 .86 3 0 3 2 0 .94-.87 1.6-2.38 1.6a4.33 4.33 0 01-2.19-.48zm13.37-4.58v5.05h-1.39v-.6a2.05 2.05 0 01-1.57.67 2 2 0 01-2.16-2.27v-2.85h1.47v2.64c0 .84.37 1.22 1 1.22s1.16-.44 1.16-1.36v-2.5zm12.7 2.16v2.89h-1.47v-2.67c0-.81-.36-1.19-1-1.19s-1.12.42-1.12 1.32v2.54h-1.46v-2.67c0-.81-.35-1.19-1-1.19s-1.11.42-1.11 1.32v2.54h-1.46v-5.05h1.4v.58a2 2 0 011.58-.66 1.88 1.88 0 011.66.83 2.27 2.27 0 011.82-.83 2 2 0 012.16 2.24z" fill="#414042"/><g fill-rule="evenodd"><path d="M52.21 26.35H19.48v38.98h32.73m40.77 0H126V26.35H92.98" fill="none" stroke="#414042" stroke-linecap="round" stroke-linejoin="round" stroke-width="1.5"/><path d="M52.21 40.68c4.7 1.28 10 3.22 14.16 7.91a19 19 0 013.94 19 15.24 15.24 0 01-10.6-4.72c-7.18-7.09-7.37-15.41-7.5-22.19zm39.47-8.86C87 33.1 81.66 35 77.52 39.73a19 19 0 00-3.93 19A15.23 15.23 0 0084.18 54c7.19-7.08 7.37-15.4 7.5-22.18z" fill="#414042"/><path d="M67.33 13c-2.91 3.9-5.9 8.71-6.26 15a18.94 18.94 0 008.6 17.35A15.22 15.22 0 0075.1 35c1.29-10-3.7-16.64-7.77-22z" fill="#00a79d"/></g></svg>