<svg xmlns="http://www.w3.org/2000/svg" width="128" height="128"><defs><style>.a{fill:#414042}.b{fill:#00a79d}.c{fill:#fff}</style></defs><path class="a" d="M12.9 75.87l-2.49 7.55H7.2l8.16-24h3.74l8.19 24H24l-2.56-7.55zm7.87-2.43l-2.35-6.9c-.54-1.57-.89-3-1.25-4.39h-.07c-.35 1.43-.75 2.89-1.21 4.35l-2.35 6.94zm10.04-13.71a32.42 32.42 0 015.95-.5c3.31 0 5.45.61 7 2a6 6 0 011.88 4.56 6.31 6.31 0 01-4.52 6.13V72c1.85.65 3 2.35 3.53 4.85a38.17 38.17 0 001.85 6.59h-3.26a31.88 31.88 0 01-1.6-5.74c-.71-3.31-2-4.56-4.81-4.66h-2.92v10.4h-3.1zm3.1 10.94h3.17c3.31 0 5.42-1.82 5.42-4.56 0-3.1-2.25-4.45-5.52-4.49a12.33 12.33 0 00-3.07.29zm36.69.5c0 8.26-5 12.64-11.15 12.64-6.34 0-10.79-4.92-10.79-12.18C48.66 64 53.4 59 59.81 59S70.6 64 70.6 71.17zm-18.6.39c0 5.12 2.78 9.72 7.66 9.72s7.69-4.52 7.69-10c0-4.77-2.49-9.76-7.66-9.76S52 66.29 52 71.56zm42.85 1.31c-.18-3.34-.39-7.37-.35-10.36h-.11c-.82 2.81-1.82 5.81-3 9.12l-4.27 11.64h-2.35l-3.88-11.43c-1.14-3.38-2.1-6.48-2.78-9.33H78c-.07 3-.25 7-.46 10.61l-.64 10.3H74l1.68-24h4L83.71 71c1 3 1.81 5.59 2.42 8.09h.1c.61-2.43 1.46-5.06 2.53-8.09L93 59.41h4l1.5 24h-3zm11.94 3l-2.5 7.55h-3.2l8.15-24H113l8.19 24h-3.31l-2.56-7.55zm7.87-2.43l-2.35-6.9c-.54-1.57-.89-3-1.25-4.39H111c-.36 1.43-.75 2.89-1.21 4.35l-2.35 6.94z"/><path class="b" d="M31.74 92.87h.39v4.95h3v.35h-3.39zm6.08 3.33a2 2 0 112 2 1.92 1.92 0 01-2-2zm3.56 0a1.59 1.59 0 10-1.59 1.66 1.57 1.57 0 001.59-1.66zm5.7-2.01v.37H47a1.37 1.37 0 00-1.4 1.56v2.06h-.38v-4h.37v.86a1.5 1.5 0 011.49-.85zm6.62 2.1h-3.4a1.69 1.69 0 002.93 1l.22.25a1.88 1.88 0 01-1.45.66 1.94 1.94 0 01-2-2 1.89 1.89 0 011.89-2 1.87 1.87 0 011.88 2zM50.31 96h3a1.51 1.51 0 00-3 0zm13.33-.14v2.31h-.38v-2.28c0-.89-.46-1.36-1.23-1.36a1.4 1.4 0 00-1.45 1.54v2.1h-.37v-2.28c0-.89-.47-1.36-1.24-1.36a1.39 1.39 0 00-1.44 1.54v2.1h-.38v-4h.36v.85a1.58 1.58 0 011.49-.83 1.4 1.4 0 011.44 1 1.67 1.67 0 011.6-1 1.48 1.48 0 011.6 1.67zm3.66-2.99h1.22v5.3H67.3zm9.1 3.27a2 2 0 01-2 2.09 1.59 1.59 0 01-1.23-.49v1.9H72V94.1h1.1v.47a1.56 1.56 0 011.28-.57 2 2 0 012.02 2.14zm-1.19 0a1 1 0 10-1 1.12 1 1 0 001-1.12zm3.86 1.65l.39-.84a2.84 2.84 0 001.42.39c.54 0 .75-.14.75-.37 0-.67-2.46 0-2.46-1.61 0-.78.69-1.32 1.88-1.32a3.34 3.34 0 011.57.36l-.4.84a2.31 2.31 0 00-1.17-.31c-.53 0-.76.17-.76.38 0 .7 2.46 0 2.46 1.63 0 .76-.7 1.29-1.92 1.29a3.48 3.48 0 01-1.76-.44zm10.78-3.69v4.07h-1.12v-.48a1.65 1.65 0 01-1.26.54 1.62 1.62 0 01-1.74-1.83v-2.3h1.18v2.13c0 .68.3 1 .82 1s.94-.35.94-1.1v-2zm10.25 1.74v2.33h-1.18V96c0-.66-.29-1-.77-1s-.9.34-.9 1.07v2h-1.18V96c0-.66-.28-1-.78-1s-.89.34-.89 1.07v2h-1.18V94.1h1.13v.47a1.64 1.64 0 011.28-.57 1.52 1.52 0 011.34.67 1.81 1.81 0 011.47-.67 1.58 1.58 0 011.66 1.84zM69.75 28a6.06 6.06 0 11-6.36-5.74A6.07 6.07 0 0169.75 28z"/><path class="b" d="M59.73 26.91a6.06 6.06 0 11-7.42 4.27 6.06 6.06 0 017.42-4.27z"/><path class="b" d="M55.62 36.11a6.06 6.06 0 111.77 8.37 6 6 0 01-1.77-8.37z"/><path class="b" d="M63.1 42.85a6.05 6.05 0 118.51.91 6 6 0 01-8.51-.91z"/><path class="b" d="M71.82 37.83a6.05 6.05 0 113.5-7.83 6.06 6.06 0 01-3.5 7.83z"/><path class="c" d="M64.79 31.76a5.69 5.69 0 01-.74 2.92 5.65 5.65 0 01-1-2.83 5.65 5.65 0 01.74-2.92 5.6 5.6 0 011 2.83z"/><path class="c" d="M62 32.58a5.58 5.58 0 012.55 1.61 5.1 5.1 0 01-5.55-1.5 5.57 5.57 0 013-.11z"/><path class="c" d="M62 35.44a5.63 5.63 0 012.32-1.92 5.67 5.67 0 01-.83 2.9 5.57 5.57 0 01-2.31 1.92 5.71 5.71 0 01.82-2.9z"/><path class="c" d="M64.68 36.39a5.62 5.62 0 01-1.12-2.79 5.11 5.11 0 013.62 4.47 5.61 5.61 0 01-2.5-1.68z"/><path class="c" d="M66.42 34.11a5.64 5.64 0 01-3 .2 5.08 5.08 0 015.38-2.05 5.63 5.63 0 01-2.38 1.85z"/><path class="a" d="M50.13 39.17a4.66 4.66 0 11-.22-6.58 4.65 4.65 0 01.22 6.58z"/><path class="a" d="M45.37 33.07A4.65 4.65 0 1139 31.24a4.65 4.65 0 016.37 1.83z"/><path class="a" d="M38.08 35.42a4.66 4.66 0 11-3.69 5.46 4.67 4.67 0 013.69-5.46z"/><path class="a" d="M38.34 43.16a4.66 4.66 0 114 5.2 4.67 4.67 0 01-4-5.2z"/><path class="a" d="M45.79 45.59a4.66 4.66 0 014-8.44A4.45 4.45 0 0152 43.34a4.67 4.67 0 01-6.21 2.25z"/><path class="c" d="M45.39 38.45a4.35 4.35 0 01-2 1.15 3.92 3.92 0 013-3.24 4.27 4.27 0 01-1 2.09z"/><path class="c" d="M43.47 37.37a4.35 4.35 0 01.47 2.27 3.93 3.93 0 01-2.14-3.88 4.35 4.35 0 011.67 1.61z"/><path class="c" d="M41.85 38.86a4.3 4.3 0 012.3.26 4.4 4.4 0 01-2 1.09 4.3 4.3 0 01-2.3-.26 4.3 4.3 0 012-1.09z"/><path class="c" d="M42.77 40.86a4.28 4.28 0 01.95-2.1 3.9 3.9 0 01-.54 4.38 4.3 4.3 0 01-.41-2.28z"/><path class="c" d="M45 40.61a4.29 4.29 0 01-1.71-1.56 3.91 3.91 0 014 1.88 4.31 4.31 0 01-2.29-.32z"/><path class="a" d="M90.83 39.39a4.66 4.66 0 11-.22-6.58 4.65 4.65 0 01.22 6.58z"/><path class="a" d="M86.07 33.29a4.65 4.65 0 11-6.33-1.83 4.65 4.65 0 016.33 1.83z"/><path class="a" d="M78.78 35.64a4.66 4.66 0 11-3.68 5.46 4.67 4.67 0 013.68-5.46z"/><path class="a" d="M79.05 43.38a4.66 4.66 0 114 5.19 4.66 4.66 0 01-4-5.19z"/><path class="a" d="M86.49 45.8a4.65 4.65 0 114-8.43 4.45 4.45 0 012.24 6.19 4.65 4.65 0 01-6.24 2.24z"/><path class="c" d="M86.1 38.67a4.4 4.4 0 01-2 1.15 3.92 3.92 0 013-3.24 4.34 4.34 0 01-1 2.09z"/><path class="c" d="M84.17 37.59a4.32 4.32 0 01.47 2.26A3.9 3.9 0 0182.5 36a4.35 4.35 0 011.67 1.59z"/><path class="c" d="M82.55 39.08a4.35 4.35 0 012.3.25 4.37 4.37 0 01-2 1.1 4.42 4.42 0 01-2.3-.26 4.3 4.3 0 012-1.09z"/><path class="c" d="M83.47 41.09a4.34 4.34 0 011-2.12 4.33 4.33 0 01.41 2.28 4.28 4.28 0 01-1 2.11 4.28 4.28 0 01-.41-2.27z"/><path class="c" d="M85.66 40.83A4.29 4.29 0 0184 39.27a3.91 3.91 0 014 1.88 4.31 4.31 0 01-2.34-.32z"/><path d="M98.45 39.85H126m-123.96 0h25.94M2.04 106.91H126" fill="none" stroke="#414042" stroke-linecap="round" stroke-linejoin="round" stroke-width="1.5"/></svg>