<svg xmlns="http://www.w3.org/2000/svg" width="128" height="128"><defs><style>.a{fill:none;stroke:#414042;stroke-linecap:round;stroke-linejoin:round;stroke-width:.5px}.b{fill:#414042}.c{fill:#00a79d}</style></defs><path class="a" d="M48.79 50.28c-1.69-2.26.46-7.34 2.14-9.5 8.36-10.82 28.63-9 34.36-23.18"/><path class="a" d="M70.32 16.93c0 4.21.2 7-2.12 10.9-1.84 3.2-4 4.1-7.14 5.8M52.54 39a14.28 14.28 0 015.05-2.18c2.3-.36 4.72.14 7 .44 3.84.51 7.81 1.09 11.72 1.46M52.42 24.69c4.65 4.5-2.92 12-2.27 17.06m-1.7 4.35c1.53-6 13.29-1 16.72-.15"/><path class="b" d="M76.44 27.19s-.56-3.44 5-7.49 5.76-8.16 5.62-11c-.01-.02 3.94 21.35-10.62 18.49zM67.67 29s-2.6-2.41-.68-9.15-.48-10.16-2.39-12.37c0 0 16.57 14.72 3.07 21.52z"/><path class="c" d="M51.69 35.57s-3-2.41-1.49-9.88-1.37-11-3.62-13.25c0 0 19.2 14.61 5.11 23.13zm18.77 2.34s1.46 3.15 8.33 3.42 9.33 3.56 10.8 6c0 .01-8.59-19.91-19.13-9.42z"/><path class="b" d="M51.1 43.37s1.9 4.14 10.9 4.5 12.24 4.66 14.18 7.88c.01 0-11.34-26.14-25.08-12.38z"/><path class="c" d="M4.55 57.71h5v17.42h10.73v4.05H4.55zm35.14 17.48v4H23.07V57.71h16.22v4H28v4.67h10v3.86H28v5zm18.1-.61h-10l-1.9 4.6h-5.06l9.57-21.47h4.9l9.6 21.47h-5.21zm-1.56-3.78l-3.41-8.22-3.4 8.22zm30.39-13.09l-9.29 21.47h-4.91l-9.26-21.47h5.36L75.06 73l6.62-15.33zM105 75.19v4H88.4V57.71h16.22v4H93.34v4.67h10v3.86h-10v5zm2.29 1.87l1.71-3.74a12.62 12.62 0 007.08 2.24c3 0 4.14-1 4.14-2.3 0-4-12.48-1.26-12.48-9.24 0-3.64 3-6.68 9-6.68a14.35 14.35 0 017.45 1.9l-1.5 3.76a12.19 12.19 0 00-6-1.68c-2.95 0-4.08 1.1-4.08 2.45 0 4 12.48 1.23 12.48 9.11 0 3.59-3 6.65-9.11 6.65-3.35.01-6.79-1-8.69-2.47z"/><path class="b" d="M15.9 84.87h.54v7h4.33v.49H15.9zm8.62 4.72a2.81 2.81 0 112.8 2.85 2.73 2.73 0 01-2.8-2.85zm5.06 0A2.26 2.26 0 1027.32 92a2.22 2.22 0 002.26-2.41zm8.08-2.85v.53h-.12c-1.25 0-2 .82-2 2.21v2.92H35v-5.6h.52V88a2.11 2.11 0 012.14-1.26zm9.39 2.98h-4.82A2.25 2.25 0 0044.6 92a2.29 2.29 0 001.8-.78l.31.35a2.71 2.71 0 01-2.12.92 2.76 2.76 0 01-2.89-2.85 2.68 2.68 0 012.69-2.85 2.66 2.66 0 012.67 2.83s-.01.04-.01.1zm-4.81-.42h4.3a2.15 2.15 0 00-4.3 0zm18.92-.18v3.27h-.53v-3.23c0-1.27-.66-1.93-1.75-1.93a2 2 0 00-2.06 2.18v3h-.53v-3.25c0-1.27-.66-1.93-1.75-1.93a2 2 0 00-2.06 2.18v3H52v-5.6h.51V88a2.23 2.23 0 012.15-1.25 2 2 0 012 1.36 2.37 2.37 0 012.27-1.36 2.11 2.11 0 012.23 2.37zm5.19-4.25h1.74v7.52h-1.74zm12.92 4.63a2.81 2.81 0 01-2.88 3 2.25 2.25 0 01-1.74-.7v2.7H73v-7.89h1.61v.67a2.21 2.21 0 011.81-.75 2.81 2.81 0 012.85 2.97zm-1.7 0a1.48 1.48 0 10-1.47 1.6 1.46 1.46 0 001.47-1.6zm5.48 2.36l.56-1.21a3.87 3.87 0 002 .56c.77 0 1.06-.2 1.06-.53 0-.94-3.49 0-3.49-2.28 0-1.1 1-1.87 2.67-1.87a4.8 4.8 0 012.23.5l-.56 1.19a3.35 3.35 0 00-1.67-.43c-.75 0-1.07.24-1.07.54 0 1 3.49 0 3.49 2.31 0 1.08-1 1.84-2.73 1.84a5 5 0 01-2.49-.62zm15.3-5.25v5.78h-1.59v-.68a2.34 2.34 0 01-1.79.77 2.31 2.31 0 01-2.47-2.6v-3.27h1.67v3c0 1 .43 1.4 1.17 1.4s1.34-.5 1.34-1.56v-2.84zm14.54 2.47v3.31h-1.67v-3c0-.93-.42-1.36-1.1-1.36s-1.28.48-1.28 1.51v2.9h-1.67v-3c0-.93-.4-1.36-1.1-1.36s-1.26.48-1.26 1.51v2.9h-1.68v-5.88h1.6v.67a2.35 2.35 0 011.82-.75 2.17 2.17 0 011.9.94 2.59 2.59 0 012.08-.94 2.23 2.23 0 012.36 2.55z"/><path d="M25.81 50.28l19.24-19.25M83.96 99.3l-21.44 21.43L41.09 99.3m51.49-55.68l6.66 6.66" stroke-width="1.5" fill="none" stroke="#414042" stroke-linecap="round" stroke-linejoin="round"/></svg>