<svg xmlns="http://www.w3.org/2000/svg" width="1500" height="700"><defs><clipPath id="a"><path fill="none" d="M.04-.08h1400v700H.04z"/></clipPath><style>.b{fill:#333}.e{fill:#c4c4c4}.f{fill:#231f20}</style></defs><path class="b" d="M.5.5h1499v699H.5z"/><path class="b" d="M1499 1v698H1V1h1498m1-1H0v700h1500z"/><g clip-path="url(#a)" opacity=".05"><path class="e" d="M-60.45 253.94l132.68-7.82-107.2-65-25.75 20v-1.44L-35.36 180a.57.57 0 01.64 0l109.1 66.1a.57.57 0 01.26.62.56.56 0 01-.52.43l-134.57 7.94zm1.36 267.18l68.86 39.52 52-13.9-121-46.32v-1.22l123 47.11a.57.57 0 01.37.56.56.56 0 01-.42.52L9.83 561.8h-.14a.6.6 0 01-.29-.08l-68.48-39.3zm577.28-82.91l-139-45.08a.58.58 0 01-.38-.67.56.56 0 01.63-.44l144.85 16.78a.56.56 0 01.39.24.53.53 0 01.1.44l-5.85 28.3a.6.6 0 01-.28.38.54.54 0 01-.28.08.57.57 0 01-.18-.03zM385 393.81l132.94 43.12 5.6-27.07zm516.75 390.13a.59.59 0 01-.36-.33l-48.65-126.39a.57.57 0 01.31-.74.55.55 0 01.55.06L971 739.05a.6.6 0 01.24.48.56.56 0 01-.26.47l-68.79 43.88a.53.53 0 01-.3.09zm-47.27-125.38l47.73 124 67.48-43z"/><path class="e" d="M692.88 786.92a.58.58 0 01.18-.64l159.86-129.71a.54.54 0 01.5-.11.59.59 0 01.39.35l48.65 126.39a.6.6 0 01-.06.52.56.56 0 01-.46.25l-208.51 3.33a.56.56 0 01-.55-.38zM853 658L695 786.18l206-3.29zM137.9 489.73a.57.57 0 01-.05-.67l119-197.35a.55.55 0 01.4-.26.52.52 0 01.46.12l122 100.57a.57.57 0 01.2.53.55.55 0 01-.35.44l-241 96.78h-.21a.54.54 0 01-.45-.16zm119.59-196.86L139.7 488.19l238.57-95.78z"/><path class="e" d="M138.16 489.9a.57.57 0 01-.39-.59l19-242.06a.59.59 0 01.28-.45.53.53 0 01.52 0l100 44.72a.56.56 0 01.32.35.61.61 0 01-.06.46l-119 197.35a.56.56 0 01-.48.28.6.6 0 01-.19-.06zm19.7-241.76L139.09 487l117.43-194.74z"/><path class="e" d="M137.78 489.5L73.54 246.73a.56.56 0 01.1-.5.83.83 0 01.45-.22l83.27.71a.58.58 0 01.41.18.59.59 0 01.15.44l-19 242.06a.58.58 0 01-.51.53.58.58 0 01-.63-.43zM74.83 247.16L138 486l18.71-238.12z"/><path class="e" d="M-59.2 499.2l122.72 47 73.34-56.42-196.22-21v-1.18l197.76 21.19a.57.57 0 01.48.41.55.55 0 01-.2.61L64 547.29a.55.55 0 01-.35.12h-.21l-122.64-47zm216.55-251.34l-83.27-.71a.56.56 0 01-.56-.56l.35-78.59a.58.58 0 01.34-.53.57.57 0 01.62.12l82.92 79.29a.55.55 0 01.13.62.56.56 0 01-.53.36zM74.66 246l81.26.69L75 169.33z"/><path class="e" d="M-61.23 101.7l135.1 65.39.39-360.93L-61.83-15.48v-1.87L74.38-195.87a.6.6 0 01.64-.2.57.57 0 01.38.54L75 168a.55.55 0 01-.27.48.53.53 0 01-.3.09.54.54 0 01-.25-.06L-61.22 103z"/><path class="e" d="M73.79 247.07l-109.1-66.15a.57.57 0 01-.26-.61.57.57 0 01.49-.45l109.45-12.43a.55.55 0 01.63.57l-.35 78.59a.56.56 0 01-.29.49.55.55 0 01-.28.07.44.44 0 01-.29-.08zm-107.08-66.26l106.81 64.76.34-76.93z"/><path class="e" d="M-61 148.66l26.22 31.17 107.2-12.18L-61.22 103v-1.3l135.91 65.78a.59.59 0 01.31.61.58.58 0 01-.5.48L-34.95 181a.57.57 0 01-.44-.2L-61 150.45zm754.58 638.61l-126.7 37h-4.14l129.15-37.69L462.8 668.66l55.35 155.84h-1.21l-55.69-156.82a.56.56 0 01.16-.62.57.57 0 01.59-.06l231.68 119.22a.58.58 0 01.31.56.59.59 0 01-.41.49z"/><path class="e" d="M516.94 824.51l-55.48-156.23-150.22 72.9 185.05 83.43h-2.75l-183.88-82.89a.57.57 0 010-1L461.53 667a.55.55 0 01.47 0 .57.57 0 01.32.34l55.82 157.2zM451.7 488.3l-39.06-11.67a.57.57 0 01-.36-.72.58.58 0 01.36-.36l105.57-38.42a.58.58 0 01.7.27.56.56 0 01-.16.72l-66.5 50.09a.54.54 0 01-.34.12zM414.61 476l37.14 11.1L515 439.51z"/><path class="e" d="M412.27 476.3l-33.43-83.5a.59.59 0 01.11-.61.59.59 0 01.6-.15l139 45.09a.56.56 0 010 1.07L413 476.62h-.2a.59.59 0 01-.53-.32zm-31.92-82.8l32.77 81.86 103.49-37.66z"/><path class="e" d="M461.23 667.63l-49-191.4a.61.61 0 01.15-.56.57.57 0 01.56-.13L452 487.21a.57.57 0 01.4.52l9.92 179.73a.56.56 0 01-.48.59h-.09a.56.56 0 01-.52-.42zM413.6 476.92l47.29 184.79-9.57-173.52z"/><path class="e" d="M137.78 489.48a.56.56 0 01.34-.65l241-96.78a.54.54 0 01.43 0 .59.59 0 01.31.31l33.43 83.5a.56.56 0 01-.05.52.54.54 0 01-.45.26l-274.43 13.29a.57.57 0 01-.58-.45zm241.27-96.15l-237.36 95.29L412 475.55z"/><path class="e" d="M379 393L257 292.45a.6.6 0 01-.21-.45.54.54 0 01.22-.44l150.15-117.23a.57.57 0 01.92.52l-28.14 217.81a.59.59 0 01-.36.45h-.21a.56.56 0 01-.37-.11zM258.25 292l120.69 99.47 27.83-215.41z"/><path class="e" d="M257.06 292.51a.6.6 0 01-.29-.57L276.13 116a.56.56 0 01.28-.43.59.59 0 01.52 0l130.81 58.7a.59.59 0 01.34.45.58.58 0 01-.22.52L257.69 292.46a.55.55 0 01-.35.12.68.68 0 01-.28-.07zm20.12-175.58l-19.12 173.8 148.35-115.82z"/><path class="e" d="M276.22 116.39L74.35-195.22a.6.6 0 010-.63.58.58 0 01.58-.24l264.3 52.36a.53.53 0 01.37.26.57.57 0 01.08.44l-62.43 259.25a.57.57 0 01-.46.43h-.09a.52.52 0 01-.48-.26zM76-194.7l200.45 309.36 62-257.38z"/><path class="e" d="M257.11 292.53l-100-44.72a.56.56 0 01-.33-.4.61.61 0 01.14-.5L276.27 115.7a.58.58 0 01.66-.14.56.56 0 01.33.59l-19.35 175.92a.56.56 0 01-.28.43.6.6 0 01-.29.08.59.59 0 01-.23-.05zm-98.81-45.44l98.56 44.08 19.08-173.4z"/><path class="e" d="M157 247.7l-83-79.29a.57.57 0 01-.08-.8.55.55 0 01.34-.2l202.25-51.92a.6.6 0 01.64.26.57.57 0 01-.07.68L157.77 247.67a.51.51 0 01-.4.19.52.52 0 01-.37-.16zm-81.43-79.4l81.75 78.17L275 117.11z"/><path class="e" d="M74.09 168.45a.56.56 0 01-.22-.45l.39-363.53a.57.57 0 01.41-.54.56.56 0 01.64.23l201.86 311.61a.6.6 0 01.06.52.59.59 0 01-.39.35L74.58 168.55h-.14a.55.55 0 01-.35-.1zm1.31-362L75 167.26l200.78-51.53zm386.28 861.6L204.9 620.18a.61.61 0 01-.45-.45.55.55 0 01.23-.58l207.8-143.53a.56.56 0 01.78.13.66.66 0 01.09.19l49 191.41a.56.56 0 01-.41.69h-.15zm-255.22-48.74L461 666.76 412.45 477z"/><path class="e" d="M309.46 741.57L204.58 620a.56.56 0 010-.8.57.57 0 01.48-.14l256.78 47.88a.56.56 0 01.4.7.55.55 0 01-.29.36l-151.81 73.71a.54.54 0 01-.25.06.55.55 0 01-.43-.2zm-103-121.1L310 740.49l150-72.76z"/><path class="e" d="M204.87 620.17a.56.56 0 01-.37-.3l-66.67-130.25a.56.56 0 01.22-.76.59.59 0 01.26-.07l274.46-13.28a.61.61 0 01.57.39.57.57 0 01-.22.65L205.33 620.08a.53.53 0 01-.32.1.33.33 0 01-.14-.01zm-65.62-130.29l66 128.9 205.61-142z"/><path class="e" d="M238.49 766.93a.55.55 0 01-.29-.37l-33.75-146.82a.57.57 0 011-.5l104.87 121.58a.58.58 0 01.12.52.56.56 0 01-.36.39L239 767h-.19a.52.52 0 01-.32-.07zm-32.41-145.2l33.09 143.95 69.74-24.74z"/><path class="e" d="M238.71 767L68.36 752a.58.58 0 01-.54-.6.56.56 0 01.2-.4l136.59-131.8a.57.57 0 01.56-.13.56.56 0 01.39.42l33.76 146.82a.57.57 0 01-.44.68h-.17zm-169-16L238 765.8l-33.32-145.07z"/><path class="e" d="M204.75 620.12L63.36 547.35a.54.54 0 01-.31-.46.6.6 0 01.22-.5L138 488.91a.53.53 0 01.47-.11.55.55 0 01.38.3l66.68 130.25a.58.58 0 01-.11.67.55.55 0 01-.4.16.43.43 0 01-.27-.06zM64.68 546.74l139 71.56-65.54-128.07z"/><path class="e" d="M68.27 752a.58.58 0 01-.4-.39L9.14 561.42a.58.58 0 01.4-.72.55.55 0 01.31 0l195.32 58.37a.58.58 0 01.39.41.55.55 0 01-.16.54L68.81 751.88a.55.55 0 01-.39.16zM10.55 562.1l58.14 188.32 135.22-130.54z"/><path class="e" d="M204.84 620.16L9.52 561.8a.57.57 0 01-.4-.56.56.56 0 01.42-.54l53.93-14.41a.58.58 0 01.41 0l141.39 72.78a.56.56 0 01-.26 1.07.32.32 0 01-.17.02zM11.78 561.28l187.5 56-135.73-69.83zm1036.6 131.48l-195.21-35.19a.56.56 0 01-.41-.32.53.53 0 010-.52l33.45-59.53a.56.56 0 01.35-.27.54.54 0 01.43.06l161.76 94.72a.57.57 0 01-.29 1.06zm-194.21-36.17l191.25 34.48-158.48-92.81z"/><path class="e" d="M852.84 657.38L786.43 578a.57.57 0 01-.06-.66.58.58 0 01.6-.26l99.87 19.84a.52.52 0 01.4.32.53.53 0 010 .52l-33.45 59.53a.59.59 0 01-.44.29h-.05a.57.57 0 01-.46-.2zm-64.5-78.87L853.18 656l32.66-58.12zM570.7 256.49h.14a.57.57 0 00.41-.69L539.88 135a.57.57 0 00-1.11.29l31.37 120.82a.58.58 0 00.56.38z"/><path class="e" d="M570.44 256.43l-163.18-81.14a.57.57 0 01-.26-.76.55.55 0 01.35-.3l131.81-39.68a.56.56 0 01.44 0 .55.55 0 01.28.35l31.37 120.83a.58.58 0 01-.2.58.56.56 0 01-.35.13.57.57 0 01-.26-.01zm-161.39-81.52l160.78 79.94-30.91-119z"/><path class="e" d="M524.16 409.94L379.3 393.15a.57.57 0 01-.46-.66.62.62 0 01.2-.34l191.32-136.69a.57.57 0 01.8.12.62.62 0 01.08.51l-46.47 153.44a.58.58 0 01-.55.41zm-143.25-17.75l142.9 16.56 45.85-151.39z"/><path class="e" d="M379.08 393.07a.55.55 0 01-.28-.56l28.2-217.8a.56.56 0 01.62-.5.7.7 0 01.19.06L571 255.41a.56.56 0 01.31.47.57.57 0 01-.23.51L379.7 393.05a.56.56 0 01-.33.1.51.51 0 01-.29-.08zM408 175.65l-27.9 215.71L569.59 256zM623.44 517.3L518 438.12a.55.55 0 01-.21-.57l5.85-28.3a.58.58 0 01.69-.45.55.55 0 01.31.18l99.56 107.48a.56.56 0 01-.41.95.49.49 0 01-.35-.11zM519 437.43l100.06 75.15-94.5-102z"/><path class="e" d="M623.69 517.41l-171.92-29.09a.57.57 0 01-.46-.43.58.58 0 01.21-.59L518 437.21a.59.59 0 01.69 0l105.42 79.18a.58.58 0 01.18.68.56.56 0 01-.52.34zm-170.43-30l168.3 28.47-103.19-77.5z"/><path class="e" d="M461.57 668a.56.56 0 01-.36-.5l-9.92-179.73a.66.66 0 01.19-.46.56.56 0 01.48-.13l171.92 29.08a.57.57 0 01.29 1l-162 150.65a.58.58 0 01-.39.15.51.51 0 01-.21-.06zm-9.1-179.58l9.81 177.8 160.27-149zm-512.36-124.5l197.3 124.18L73.7 247.37l-133.9 56.56v-1.23l134.07-56.64a.55.55 0 01.47 0 .56.56 0 01.3.37l64.25 242.77a.58.58 0 01-.22.61.57.57 0 01-.33.11.56.56 0 01-.31-.09L-59.88 365.27z"/><path class="e" d="M-59.36 467.6L136 488.53-59.88 365.27v-1.35l198.53 125a.57.57 0 01.17.79.56.56 0 01-.47.26h-.07l-197.64-21.22zm-.84-164.9l131-55.35-131.26 7.74V254l134.51-8a.52.52 0 01.59.43.56.56 0 01-.33.66L-60.2 303.93zm913.26 354.84L655.38 577.7a.58.58 0 01-.35-.64.6.6 0 01.56-.46l131.26.46a.58.58 0 01.44.21l66.41 79.37a.59.59 0 010 .71.56.56 0 01-.46.23.58.58 0 01-.18-.04zm-194.51-79.78l192.82 77.87-64.78-77.43z"/><path class="e" d="M693.22 787.26a.55.55 0 01-.36-.43L655 577.27a.58.58 0 01.2-.54.61.61 0 01.58-.09l197.68 79.84a.58.58 0 01.35.45.55.55 0 01-.21.52L693.78 787.17a.59.59 0 01-.36.13.45.45 0 01-.2-.04zm-36.88-209.17l37.47 207.59 158.35-128.5z"/><path class="e" d="M786.86 578.21l-131.27-.47a.56.56 0 01-.5-.3l-31.81-60.33a.57.57 0 01.24-.77.61.61 0 01.46 0l163.08 60.76a.57.57 0 01-.19 1.11zm-130.92-1.6l127.73.44L625 517.9z"/><path class="e" d="M693.16 787.23L461.52 668a.59.59 0 01-.31-.52.58.58 0 01.33-.51l193.81-90.31a.65.65 0 01.51 0 .57.57 0 01.29.4L694 786.63a.58.58 0 01-.22.56.6.6 0 01-.34.11.45.45 0 01-.28-.07zM463.08 667.52l229.57 118.17L655.16 578z"/><path class="e" d="M461.31 667.81a.58.58 0 01.08-.74l162-150.64a.58.58 0 01.49-.15.57.57 0 01.41.3l31.81 60.33a.59.59 0 010 .45.55.55 0 01-.3.33L462 668a.49.49 0 01-.24 0 .55.55 0 01-.45-.19zm162.32-150L464.82 665.45l190-88.54zm-682.39 68.32l67.11-25-67.43-38.7v-1.32L10 560.75a.62.62 0 01.29.55.56.56 0 01-.37.48l-68.64 25.57zm598.09-450.46a.56.56 0 00.47-.26.58.58 0 00-.16-.79L407.93 46.53a.58.58 0 00-.79.16.55.55 0 00.14.78L539 135.57a.56.56 0 00.33.1z"/><path class="e" d="M407.17 175.24a.59.59 0 01-.23-.46L407 47a.56.56 0 01.3-.5.57.57 0 01.59 0l131.71 88.09a.57.57 0 01-.15 1l-131.77 39.73a.49.49 0 01-.17 0 .57.57 0 01-.34-.08zm1-127.17L408.08 174 538 134.9z"/><path class="e" d="M407.28 175.3l-130.82-58.7a.54.54 0 01-.33-.5.56.56 0 01.3-.52L407.34 46.5a.61.61 0 01.56 0 .55.55 0 01.28.49l-.1 127.77a.59.59 0 01-.26.48.56.56 0 01-.31.09.45.45 0 01-.23-.03zM278 116l128.94 57.9L407 48z"/><path class="e" d="M276.35 116.54a.58.58 0 01-.21-.59l62.44-259.25a.59.59 0 01.52-.44.57.57 0 01.57.38l68.48 190.17a.58.58 0 01-.27.7L277 116.59a.58.58 0 01-.26.06.5.5 0 01-.39-.11zm62.89-257.72L277.55 115l129.36-68.26zM-58.35 665.21L67.39 750.1 9.46 562.46l-67.89 87.37V648l67.67-87.1a.56.56 0 01.55-.21.57.57 0 01.44.39L69 751.3a.55.55 0 01-.21.63.55.55 0 01-.33.11.63.63 0 01-.33-.09l-126.48-85.36z"/><path class="e" d="M-57.76 782.23l124.76-31-125.35-84.64v-1.38L68.73 751a.61.61 0 01.25.57.59.59 0 01-.43.46l-126.3 31.37zM-58.44 648L8 562.48l-66.75 24.87v-1.22l68.24-25.42a.58.58 0 01.66.2.59.59 0 010 .69l-68.57 88.23z"/><circle class="e" cx="257.34" cy="292.02" r="7.56"/><path class="f" d="M257.3 284.45a7.56 7.56 0 11-7.51 7.61 7.56 7.56 0 017.51-7.6m0-2.28a9.84 9.84 0 109.89 9.79 9.85 9.85 0 00-9.89-9.79z"/><path class="e" d="M154.12 247.31a3.24 3.24 0 113.26 3.22 3.23 3.23 0 01-3.26-3.22z"/><path class="f" d="M157.34 244.05a3.24 3.24 0 11-3.22 3.26 3.24 3.24 0 013.22-3.26m0-2.28a5.52 5.52 0 105.55 5.49 5.52 5.52 0 00-5.55-5.49z"/><path class="e" d="M74.48 175.44a7.45 7.45 0 117.4-7.5 7.44 7.44 0 01-7.4 7.48z"/><path class="f" d="M74.4 160.55a7.45 7.45 0 11-7.4 7.5V168a7.46 7.46 0 017.41-7.49m0-2.28a8.16 8.16 0 110 .09z"/><path class="e" d="M412.77 469.36a6.73 6.73 0 11-6.7 6.76 6.73 6.73 0 016.7-6.76z"/><path class="f" d="M412.77 469.36a6.73 6.73 0 11-6.7 6.76 6.73 6.73 0 016.7-6.76m0-2.28a9 9 0 10.06 0z"/><path class="e" d="M205 615.42a4.2 4.2 0 11-4.18 4.22 4.2 4.2 0 014.18-4.22z"/><path class="f" d="M205 615.42a4.2 4.2 0 11-4.18 4.22 4.2 4.2 0 014.18-4.22m0-2.28a6.48 6.48 0 106.51 6.45 6.48 6.48 0 00-6.51-6.45z"/><path class="e" d="M63.58 538.72a8.12 8.12 0 11-8.08 8.16 8.13 8.13 0 018.08-8.16z"/><path class="f" d="M63.58 538.72a8.12 8.12 0 11-8.08 8.16 8.13 8.13 0 018.08-8.16m0-2.28A10.4 10.4 0 1074 546.82a10.41 10.41 0 00-10.45-10.35z"/><path class="e" d="M1048.46 688.86a3.34 3.34 0 11-3.32 3.36 3.35 3.35 0 013.32-3.36z"/><path class="f" d="M1048.46 688.86a3.34 3.34 0 11-3.32 3.36 3.35 3.35 0 013.32-3.35m0-2.28a5.62 5.62 0 105.65 5.59 5.62 5.62 0 00-5.65-5.59z"/><path class="e" d="M886.7 592.08a5.4 5.4 0 11-5.37 5.43 5.4 5.4 0 015.37-5.43z"/><path class="f" d="M886.7 592.08a5.4 5.4 0 11-5.37 5.43 5.4 5.4 0 015.37-5.43m0-2.28a7.68 7.68 0 107.72 7.64 7.68 7.68 0 00-7.72-7.64z"/><path class="e" d="M570.68 252.66a3.26 3.26 0 11-3.25 3.28 3.26 3.26 0 013.25-3.28z"/><path class="f" d="M570.68 252.66a3.26 3.26 0 11-3.25 3.28 3.26 3.26 0 013.25-3.28m0-2.28a5.54 5.54 0 105.57 5.51 5.54 5.54 0 00-5.57-5.51z"/><path class="e" d="M379.33 385.15a7.44 7.44 0 11-7.39 7.49 7.43 7.43 0 017.39-7.47z"/><path class="f" d="M379.33 385.15a7.44 7.44 0 11-7.39 7.49 7.43 7.43 0 017.39-7.47m0-2.28a9.72 9.72 0 109.76 9.68 9.72 9.72 0 00-9.76-9.7z"/><path class="e" d="M524.24 413.08a3.71 3.71 0 113.69-3.73 3.71 3.71 0 01-3.69 3.73z"/><path class="f" d="M524.2 405.66a3.71 3.71 0 11-3.69 3.73 3.71 3.71 0 013.69-3.73m0-2.28a6 6 0 106 6 6 6 0 00-6-6z"/><path class="e" d="M518.34 433.48a4.19 4.19 0 11-4.16 4.22 4.18 4.18 0 014.15-4.21z"/><path class="f" d="M518.34 433.48a4.19 4.19 0 11-4.16 4.22 4.18 4.18 0 014.15-4.21m0-2.28a6.47 6.47 0 106.51 6.43 6.47 6.47 0 00-6.51-6.43z"/><path class="e" d="M451.85 484.48a3.28 3.28 0 11-3.27 3.29 3.28 3.28 0 013.27-3.29z"/><path class="f" d="M451.85 484.48a3.28 3.28 0 11-3.27 3.29 3.28 3.28 0 013.27-3.29m0-2.28a5.56 5.56 0 105.59 5.53 5.56 5.56 0 00-5.59-5.53z"/><path class="e" d="M138.31 483.65a5.71 5.71 0 11-5.68 5.74 5.71 5.71 0 015.68-5.74z"/><path class="f" d="M138.31 483.65a5.71 5.71 0 11-5.68 5.74 5.71 5.71 0 015.68-5.74m0-2.28a8 8 0 108 8v-.05a8 8 0 00-8-7.95z"/><path class="e" d="M74.06 240a6.56 6.56 0 11-6.53 6.59 6.56 6.56 0 016.53-6.59z"/><path class="f" d="M74.06 240a6.56 6.56 0 11-6.53 6.59 6.56 6.56 0 016.53-6.59m0-2.28a8.84 8.84 0 108.94 8.79 8.84 8.84 0 00-8.89-8.79z"/><path class="e" d="M853.24 649.9a7.11 7.11 0 11-7.07 7.15 7.11 7.11 0 017.07-7.15z"/><path class="f" d="M853.24 649.9a7.11 7.11 0 11-7.07 7.15 7.11 7.11 0 017.07-7.15m0-2.28a9.39 9.39 0 109.44 9.34 9.38 9.38 0 00-9.44-9.34z"/><path class="e" d="M782.77 577.66a4.1 4.1 0 114.13 4.07 4.09 4.09 0 01-4.13-4.07z"/><path class="f" d="M786.84 573.54a4.1 4.1 0 11-4.07 4.13 4.1 4.1 0 014.07-4.12m0-2.28a6.38 6.38 0 106.41 6.35 6.38 6.38 0 00-6.41-6.36z"/><path class="e" d="M655.56 570.45a6.73 6.73 0 11-6.69 6.77 6.73 6.73 0 016.69-6.77z"/><path class="f" d="M655.56 570.45a6.73 6.73 0 11-6.69 6.77 6.73 6.73 0 016.69-6.76m0-2.28a9 9 0 10.05 0z"/><path class="e" d="M461.75 661.62a5.87 5.87 0 11-5.83 5.91 5.88 5.88 0 015.83-5.91z"/><path class="f" d="M461.75 661.62a5.87 5.87 0 11-5.84 5.9 5.87 5.87 0 015.84-5.9m0-2.28a8.15 8.15 0 108.19 8.11 8.15 8.15 0 00-8.19-8.11z"/><path class="e" d="M623.76 512.54a4.31 4.31 0 11-4.28 4.34 4.31 4.31 0 014.27-4.33z"/><path class="f" d="M623.76 512.54a4.31 4.31 0 11-4.28 4.34 4.31 4.31 0 014.27-4.33m0-2.28a6.59 6.59 0 106.62 6.56 6.61 6.61 0 00-6.62-6.55z"/><path class="e" d="M539.3 130a5.15 5.15 0 11-5.13 5.17 5.16 5.16 0 015.13-5.17z"/><path class="f" d="M539.3 130a5.15 5.15 0 11-5.13 5.17 5.16 5.16 0 015.13-5.17m0-2.29a7.44 7.44 0 107.47 7.41 7.46 7.46 0 00-7.47-7.41z"/><path class="e" d="M407.49 171a3.83 3.83 0 11-3.8 3.86 3.83 3.83 0 013.8-3.86z"/><path class="f" d="M407.49 171a3.83 3.83 0 11-3.8 3.86 3.83 3.83 0 013.8-3.85m0-2.28a6.11 6.11 0 106.14 6.08 6.12 6.12 0 00-6.14-6.09z"/><path class="e" d="M407.65 55.24a8.24 8.24 0 118.2-8.28 8.22 8.22 0 01-8.19 8.27z"/><path class="f" d="M407.57 38.77a8.24 8.24 0 11-8.2 8.28 8.24 8.24 0 018.2-8.28m0-2.28A10.52 10.52 0 10418.13 47a10.52 10.52 0 00-10.56-10.51z"/><path class="e" d="M276.68 111.88a4.21 4.21 0 11-4.19 4.23 4.2 4.2 0 014.19-4.23z"/><path class="f" d="M276.68 111.88a4.21 4.21 0 11-4.19 4.23 4.2 4.2 0 014.19-4.23m0-2.28a6.49 6.49 0 106.52 6.46 6.49 6.49 0 00-6.52-6.46z"/><circle class="e" cx="9.69" cy="561.25" r="5.43"/><path class="f" d="M9.66 555.81a5.44 5.44 0 11-5.41 5.47 5.45 5.45 0 015.41-5.47m0-2.28a7.72 7.72 0 107.75 7.69 7.72 7.72 0 00-7.75-7.69z"/></g></svg>