<svg xmlns="http://www.w3.org/2000/svg" xmlns:xlink="http://www.w3.org/1999/xlink" width="60" height="60"><defs><linearGradient id="a" x1="30.3" y1=".53" x2="30.3" y2="59.53" gradientUnits="userSpaceOnUse"><stop offset="0" stop-color="#f9ac31"/><stop offset=".5" stop-color="#f3622a"/><stop offset="1" stop-color="#ed1c24"/></linearGradient><linearGradient id="b" x1="28.37" y1="32.88" x2="28.37" y2="54.19" xlink:href="#a"/><linearGradient id="c" x1="30.3" y1="5.86" x2="30.3" y2="51.25" xlink:href="#a"/></defs><circle cx="30.3" cy="30.03" r="29" fill="#333" stroke-miterlimit="10" stroke="url(#a)"/><path d="M35.88 44.31s-.19 2.4-1.2 3.33a1.24 1.24 0 01-1.76.07 3.3 3.3 0 01-1-2.08 11.61 11.61 0 01.09-3c.58-3.51 1.32-6.34 0-9.8a14.11 14.11 0 01-2.34 7c-.94 1.26-2.08 2.14-3.47 1.83-1.88-.43-3-2.45-3.76-3.87-2.05 2.39-2.83 7.78-2.07 11a14.17 14.17 0 001.43 3.81 24.36 24.36 0 0014.2.92 15.44 15.44 0 00-.12-9.21z" fill="url(#b)"/><path d="M30.3 5.86a24.17 24.17 0 00-13 44.55c-3.53-4.53-3.95-10.76 0-16.19 2.53-3.48 6.26-6.16 8.48-11.06.85 3.05-.18 5.95-1.07 8.87-.44 1.46-.92 3.08 1 3.65s2.55-1.31 2.74-2.57a74.65 74.65 0 00-.45-9.57 38 38 0 01-.38-7.66 10.46 10.46 0 014.41-7.5c-3.24 5.85-.43 13.73.9 15.66.9 1.31 2.2 3.94 3.42 3.14.32-.21.37-1.05.36-1.36A26.24 26.24 0 0035 17.93a78.21 78.21 0 016.56 8.13 31.84 31.84 0 014 9.54 17.11 17.11 0 01-3.66 15.65A24.17 24.17 0 0030.3 5.86z" fill="url(#c)"/></svg>