<svg xmlns="http://www.w3.org/2000/svg" width="35" height="35"><defs><style>.a{fill:#fff}</style></defs><path class="a" d="M20.92 5.67a.69.69 0 100 1.37.69.69 0 000-1.37zm-6.84 0a.69.69 0 10.69.69.69.69 0 00-.69-.69z"/><path class="a" d="M32.34 20.43a5.44 5.44 0 00.88-2.93 4.71 4.71 0 00-1.73-3.67 4.68 4.68 0 00.37-1.8 5.09 5.09 0 00-2.77-4.5A4.11 4.11 0 0026 3.05 4.93 4.93 0 0021.6 0a4.82 4.82 0 00-4.1 2.46A4.82 4.82 0 0013.4 0 4.93 4.93 0 009 3.05a4.1 4.1 0 00-3.09 4.48A5.09 5.09 0 003.14 12a4.68 4.68 0 00.37 1.8 4.71 4.71 0 00-1.73 3.7 5.41 5.41 0 00.88 2.93 4.72 4.72 0 00.55 6.13 5 5 0 004.72 5.71H8A5.48 5.48 0 0012.71 35a5.52 5.52 0 004.79-3 5.39 5.39 0 009.51.23h.06a5 5 0 004.79-5 3.65 3.65 0 00-.07-.72 4.72 4.72 0 00.55-6.13zM16.82 10.35a2.68 2.68 0 00-1.37-.35.69.69 0 000 1.37 1.37 1.37 0 011.37 1.36v13a5.49 5.49 0 00-4.11-1.85.68.68 0 000 1.36 4.11 4.11 0 014.11 4.11 4.26 4.26 0 01-4.11 4.3A4.12 4.12 0 019 31.25a.66.66 0 00-.69-.39h-.15a3.57 3.57 0 01-3.54-4.41.68.68 0 00-.23-.68 3.41 3.41 0 01-1.25-2.62 3.36 3.36 0 01.51-1.76 4.57 4.57 0 002.91 1.08.69.69 0 100-1.37 3.6 3.6 0 01-3.42-3.6 3.4 3.4 0 011.6-2.88.69.69 0 00.26-.92 3.36 3.36 0 01-.49-1.7 3.61 3.61 0 013.42-3.59A3.62 3.62 0 0111.35 12a.68.68 0 101.36 0 5 5 0 00-4.78-5 5.06 5.06 0 00-.68 0A2.73 2.73 0 0110 4.31a2.68 2.68 0 011.93.8.7.7 0 001 0 .68.68 0 000-1A4.06 4.06 0 0010.61 3a3.46 3.46 0 012.79-1.63A3.62 3.62 0 0116.82 5zm11.62 12.14a4.61 4.61 0 002.91-1.07 3.3 3.3 0 01.51 1.75 3.41 3.41 0 01-1.25 2.62.68.68 0 00-.23.68 3.63 3.63 0 01.11.81 3.57 3.57 0 01-3.65 3.6h-.15a.66.66 0 00-.69.39 4.12 4.12 0 01-3.71 2.38 4.26 4.26 0 01-4.11-4.3 4.11 4.11 0 014.11-4.11.68.68 0 000-1.36 5.49 5.49 0 00-4.11 1.85v-13a1.37 1.37 0 011.37-1.36.69.69 0 000-1.37 2.68 2.68 0 00-1.37.37V5a3.62 3.62 0 013.42-3.63A3.46 3.46 0 0124.39 3a4.06 4.06 0 00-2.27 1.15.68.68 0 000 1 .7.7 0 001 0A2.68 2.68 0 0125 4.31 2.73 2.73 0 0127.75 7a5.06 5.06 0 00-.68 0 5 5 0 00-4.78 5 .68.68 0 001.36 0 3.62 3.62 0 013.42-3.62A3.61 3.61 0 0130.49 12a3.36 3.36 0 01-.49 1.7.69.69 0 00.23.92 3.4 3.4 0 011.6 2.88 3.59 3.59 0 01-3.42 3.62.69.69 0 100 1.37z"/><path class="a" d="M15.28 14.63a.69.69 0 00-1-.05A3.43 3.43 0 018.61 12a.68.68 0 00-1.36 0 4.79 4.79 0 004 4.72 2 2 0 01-1.95 1.46.69.69 0 100 1.37 3.42 3.42 0 003.35-2.77 4.87 4.87 0 002.57-1.18.69.69 0 00.06-.97zM7.93 26.59a.69.69 0 000 1.37 3.62 3.62 0 013.42 3.62.68.68 0 101.36 0 5 5 0 00-4.78-4.99zm5.47-5.47a6.12 6.12 0 00-5.35 3.12.68.68 0 00.25.93.7.7 0 00.94-.25 4.76 4.76 0 014.16-2.43.69.69 0 000-1.37zm12.3-2.94a2 2 0 01-1.95-1.43 4.79 4.79 0 004-4.72.68.68 0 00-1.36 0 3.42 3.42 0 01-5.7 2.55.68.68 0 10-.91 1 4.87 4.87 0 002.57 1.18 3.42 3.42 0 003.35 2.77.69.69 0 100-1.37zm1.37 8.41a5 5 0 00-4.78 5 .68.68 0 101.36 0A3.62 3.62 0 0127.07 28a.69.69 0 000-1.37zM27 24.24a6.14 6.14 0 00-5.35-3.12.69.69 0 000 1.37 4.76 4.76 0 014.16 2.43.7.7 0 00.94.25.68.68 0 00.25-.93z"/></svg>