<svg xmlns="http://www.w3.org/2000/svg" width="35" height="35"><path d="M33 33.21l-1.55-9.07a2.58 2.58 0 00-1.81-2l-4.17-1.26a4.68 4.68 0 00-3.24-4.05 4.8 4.8 0 00.37-.44 8.05 8.05 0 001.66-3.6h.32a1.52 1.52 0 001.52-1.52v-.78a1.54 1.54 0 00-.78-1.33V7.25a.52.52 0 00-1 0v2.1a3.62 3.62 0 00-.68.2h-.07l-.17.08v-4.1a2.07 2.07 0 00-2.1-2.07h-1.41a2.09 2.09 0 00-1.34.48l-.14.12a1.45 1.45 0 01-1.82 0l-.13-.12a2.14 2.14 0 00-1.35-.48H13.7a2.07 2.07 0 00-2.07 2.07v4.13l-.17-.08h-.07a3.62 3.62 0 00-.68-.2V4a3 3 0 013-3h7.56a3 3 0 013 3v.81a.52.52 0 001 0V4a4 4 0 00-4-4h-7.55a4 4 0 00-4 4v5.12a1.54 1.54 0 00-.78 1.33v.78a1.52 1.52 0 001.52 1.52h.32a8.05 8.05 0 001.66 3.6 4.8 4.8 0 00.37.44 4.67 4.67 0 00-3.24 4.05L5.36 22.1a2.58 2.58 0 00-1.81 2l-.63 3.68a.51.51 0 101 .18l.63-3.68a1.55 1.55 0 011.09-1.24l3.87-1.17v1a2.55 2.55 0 00-1.95 1.61 2.37 2.37 0 00-.15.7L7 30a1.3 1.3 0 001.3 1.4H9a.51.51 0 000-1h-.66a.29.29 0 01-.2-.09.29.29 0 01-.08-.21l.38-4.79a1.57 1.57 0 01.09-.43 1.55 1.55 0 011.45-1h.1a1.53 1.53 0 011.43.91 2.15 2.15 0 01.12.5l.37 4.82a.28.28 0 01-.07.21.31.31 0 01-.21.09h-.63a.51.51 0 100 1h.63a1.29 1.29 0 001-.42A1.26 1.26 0 0013 30l-.37-4.79a2.59 2.59 0 00-.2-.82 2.56 2.56 0 00-1.91-1.5V21.6l1.76-.53c.16.34.48 1.07 1.11 2.64s1.42 3.62 2.18 5.6v.05L17 33.09a.51.51 0 001 0l1.41-3.73v-.05c.76-2 1.54-4 2.18-5.6s.95-2.3 1.11-2.64l1.76.53v3a2.65 2.65 0 101 0v-2.69l3.87 1.17a1.55 1.55 0 011.09 1.24L32 33.38a.54.54 0 01-.11.41.51.51 0 01-.39.19h-28a.51.51 0 01-.39-.19.54.54 0 01-.11-.41l.51-3a.51.51 0 10-1-.17l-.51 3A1.53 1.53 0 003.51 35h28A1.53 1.53 0 0033 33.21zM24.3 10.4a2.17 2.17 0 01.49-.07.51.51 0 00.25-.06.58.58 0 010 .18v.78a.5.5 0 01-.5.5h-.24V10.4zm-13.6 1.33h-.28a.5.5 0 01-.5-.5v-.78a.58.58 0 010-.18.51.51 0 00.25.06 2.17 2.17 0 01.49.07v1.33zm1 .57V11a.72.72 0 00.48 0 .71.71 0 00.44-.67v-4.8a1 1 0 011-1h1.41a1.13 1.13 0 01.7.25l.13.11a2.49 2.49 0 003.12 0l.13-.11a1.13 1.13 0 01.7-.25h1.49a1 1 0 011.05 1v4.73a.71.71 0 00.44.67.66.66 0 00.28.05.69.69 0 00.2 0v1.32a6.68 6.68 0 01-1.47 3.42 6.77 6.77 0 01-1.23 1.22h-.05a5 5 0 01-6 0h-.05a6.77 6.77 0 01-1.23-1.22 6.68 6.68 0 01-1.51-3.42zm9.13 8.28l-3.33 2.51-3.36-2.51a2.39 2.39 0 00.52-1.45v-.83a6 6 0 005.68 0v.83a2.39 2.39 0 00.52 1.45zM13.29 20a1.36 1.36 0 00-.87 0l-1.77.53a3.62 3.62 0 013-2.87v1.49a1.41 1.41 0 01-.36.85zm1.39 4.11l-.08-.2-.07-.19-.22-.55-.1-.17v-.05l-.06-.14-.1-.25v-.32l-.17-.4-.09-.19v-.1l2.89 2.16-1.21.51-.51.22zm1.22 3.14l-.3-.79c-.16-.41-.32-.8-.46-1.18l.19-.08.78.91zm1.61 4.17a.41.41 0 00-.05-.09l-.85-2.24.48-2.62h.82l.48 2.62c-.34.91-.64 1.71-.88 2.34zm.6-6h-1.22l-.57-.67 1.18-.5 1.18.5zm1.29 1l-.3.79-.21-1.14.78-.91.19.08c-.14.43-.3.82-.46 1.23zm2-4.92l-.08.18a1.54 1.54 0 00-.08.19l-.07.18v.19c0 .09-.08.18-.11.27v.05l-.06.14v.05l-.06.15c-.07.17-.14.36-.21.54l-.07.19-.08.2-.08.22-.51-.22-1.21-.51 2.89-2.16zm1.21-1.5a1.46 1.46 0 00-.9 0 1.41 1.41 0 01-.35-.88v-1.48a3.6 3.6 0 013 2.87zm4 7.25A1.63 1.63 0 1125 25.61a1.63 1.63 0 011.59 1.62z" fill="#fff"/></svg>