<svg xmlns="http://www.w3.org/2000/svg" width="35" height="35"><defs><style>.a{fill:#fff}</style></defs><path class="a" d="M.4 28.55l3.37 1.13L5.11 31a3.61 3.61 0 001.76 1H7v1.24A1.75 1.75 0 008.75 35a1.72 1.72 0 001.47-.81 1.76 1.76 0 002.34-.58 1.75 1.75 0 002.33-.61 1.74 1.74 0 002.38-.66 1.43 1.43 0 00.13-.28h.68a1.75 1.75 0 001.63-2.39 1.76 1.76 0 001.23-2.15l-.06-.18a1.75 1.75 0 00.85-2.85A4.08 4.08 0 1016 18.74a3 3 0 00-1.46-.39h-.04v-.06a2 2 0 00-2.35-1A10.56 10.56 0 007.5 20L.79 17.54a.57.57 0 00-.75.34.48.48 0 000 .2V28a.58.58 0 00.36.55zm8.93 4.7a.58.58 0 11-1.16 0v-2.92a.58.58 0 011.16 0zm2.34-.58a.59.59 0 01-1.17 0v-2.92a.59.59 0 011.17 0zm2.33-.59a.59.59 0 11-1.17 0v-2.91a.59.59 0 111.17 0zm1.75 0a.58.58 0 01-.58-.58v-2.33a.58.58 0 111.16 0v2.33a.58.58 0 01-.58.58zm2.33-1.16h-.58v-1.17h.58a.59.59 0 110 1.17zm-3.5-11.09a1.55 1.55 0 00.07-.31 1.78 1.78 0 011.14.48.58.58 0 00.82 0l.09-.12a2.91 2.91 0 115.1 2.82 2.77 2.77 0 01-.83.94 1.73 1.73 0 00-1.42-2 1.53 1.53 0 00-.3 0h-6.48a2.91 2.91 0 01.8-.59 2 2 0 001.01-1.22zm-2.14-1.44a.84.84 0 011 .57.85.85 0 01-.43 1 4.14 4.14 0 00-1.81 1.84v.11a.58.58 0 00.26.78.58.58 0 00.26.06h7.58a.59.59 0 010 1.17h-4.13a.58.58 0 100 1.16h5.25a.59.59 0 010 1.17h-5.25a.59.59 0 100 1.17h4.08a.58.58 0 010 1.16H17.4a1.75 1.75 0 00-2.23-1.06 1.66 1.66 0 00-.59.34 1.74 1.74 0 00-2.46.14 1.3 1.3 0 00-.18.23 1.74 1.74 0 00-2.33.58A1.75 1.75 0 007 30.33v.49a2.54 2.54 0 01-1.07-.63L4.5 28.75a.79.79 0 00-.23-.14l-3.1-1v-5.9l5.13 1a.59.59 0 00.56-.2l1-1.15a9.3 9.3 0 014.58-2.97zM6.67 21l-.48.58-5-1v-1.6z"/><path class="a" d="M33.25 11.16V9.33a.58.58 0 00-.58-.58H31.5v-3.5h.58a.58.58 0 00.59-.58V1.6A1.61 1.61 0 0031.06 0h-2.62a1.62 1.62 0 00-1.55 1.17h-4.72a.6.6 0 00-.5.27l-3 3.42a.6.6 0 00.05.83h.06l1.92 1.32a.58.58 0 00.73-.01l2.16-2.3h3.24a.58.58 0 00.59.58H28v3.5h-1.17a.58.58 0 00-.58.58v1.83a2.32 2.32 0 00-1.75 2.26v14a2.33 2.33 0 102.33 2.33h7.59a.58.58 0 00.58-.58V13.42a2.32 2.32 0 00-1.75-2.26zm.58 12.76h-5.25v-7h5.25zM28 1.6a.44.44 0 01.44-.43h2.62a.44.44 0 01.44.43v2.48H28zm-4.67 1.9a.6.6 0 00-.42.18l-2 2.13-1-.67 2.49-2.81h4.39V3.5zm5.84 1.75h1.16v3.5h-1.16zm-1.75 4.67h4.66v1.16h-4.66zm-2.92 21a1.17 1.17 0 111.17-1.17 1.18 1.18 0 01-1.17 1.17zm2-2.34a2.47 2.47 0 00-.85-.85v-.31h1.16a.59.59 0 100-1.17h-1.14V13.42a1.16 1.16 0 011.16-1.17h5.84a1.16 1.16 0 011.16 1.17v2.33H28a.58.58 0 00-.58.58v8.17a.58.58 0 00.58.58h5.83v1.17h-4.66a.59.59 0 100 1.17h4.66v1.16z"/><path class="a" d="M18.21 12.26a1.88 1.88 0 002.65-2.54l-1.11-1.85a.58.58 0 00-.8-.2.55.55 0 00-.2.2l-1.11 1.85a1.88 1.88 0 00.57 2.54zm.43-1.94l.61-1 .61 1a.71.71 0 11-1.22 0zm-4.06 6.01a1.75 1.75 0 10-1.75-1.75 1.75 1.75 0 001.75 1.75zm0-2.33a.59.59 0 11-.58.58.58.58 0 01.58-.58zm-5.25-.58A2.34 2.34 0 107 11.08a2.34 2.34 0 002.33 2.34zm0-3.5a1.17 1.17 0 11-1.16 1.16 1.16 1.16 0 011.16-1.16zm9.14 10.48a1.17 1.17 0 011.65.09 1.29 1.29 0 01.23.39.59.59 0 00.74.36.58.58 0 00.36-.75 2.34 2.34 0 00-3-1.42 2.47 2.47 0 00-.78.46.58.58 0 00.78.87zM28 14.58a.58.58 0 000-1.16h-.58a.58.58 0 100 1.16zm2.33 0h1.75a.58.58 0 100-1.16h-1.75a.58.58 0 100 1.16z"/></svg>