<svg xmlns="http://www.w3.org/2000/svg" width="35" height="35"><defs><style>.a{fill:#fff}</style></defs><path class="a" d="M8.59 8.61a.69.69 0 10.69.69.69.69 0 00-.69-.69zm6.15 12.79h-2.05v-2a.68.68 0 10-1.36 0v2H9.28a.68.68 0 100 1.36h2.05v2a.68.68 0 101.36 0v-2h2.05a.68.68 0 100-1.36z"/><path class="a" d="M33.19 22a5.46 5.46 0 00-7.47-2L23 21.61v-5.93a3.42 3.42 0 00-.69-2l-3.46-4.61V7.13a2.05 2.05 0 001.36-1.93V2.05a2.05 2.05 0 00-2.05-2H5.86a2.05 2.05 0 00-2.05 2V5.2a2.05 2.05 0 001.36 1.93v1.94l-3.41 4.56a3.42 3.42 0 00-.69 2v13.28a3.42 3.42 0 003.42 3.42h11a5.46 5.46 0 007.42 1.94l8.29-4.79A5.47 5.47 0 0033.19 22zm-28-20a.68.68 0 01.69-.68h12.3a.68.68 0 01.69.68v3.2a.69.69 0 01-.69.68H5.86a.69.69 0 01-.69-.68V2.05zM2.85 14.45L6.4 9.71a.7.7 0 00.14-.41V7.25h10.94v1.36h-6.15a.69.69 0 100 1.37h6.49l3.35 4.47a2.14 2.14 0 01.4 1H2.45a2.14 2.14 0 01.4-1zM4.49 31a2.05 2.05 0 01-2.05-2.06v-.69h12.42a5.45 5.45 0 000 2.75zm10.91-4.14h-13v-10h19.18v5.54l-4.14 2.39a5.34 5.34 0 00-2.04 2.07zm6.82 6.22a4.1 4.1 0 01-4.1-7.1l3.71-2.14 4.1 7.1zm8.29-4.78l-3.39 2L23 23.15l3.4-2a4.1 4.1 0 014.1 7.11z"/></svg>