<svg xmlns="http://www.w3.org/2000/svg" width="35" height="35"><defs><style>.a{fill:#fff}</style></defs><path class="a" d="M35 19.51a4.09 4.09 0 00-3.46-3.46V15a5.15 5.15 0 00-5-5.31 5.17 5.17 0 00-5 5.15v11.5A6.4 6.4 0 0115.46 33a6.41 6.41 0 01-6.13-6.65v-1c.85 0 1.75-.61 1.75-2.33v-1.48a8.27 8.27 0 006.42-7.82v-1.21h-1.17v-7.6a2.92 2.92 0 00-2.4-2.85 1.74 1.74 0 10-1.12 2.19 1.73 1.73 0 001.08-1 1.75 1.75 0 011.27 1.67v7.59H14v1.23a4.64 4.64 0 01-3.36 4.35 5.33 5.33 0 01-3.21 0 4.65 4.65 0 01-3.35-4.35v-1.23H2.33V4.92a1.76 1.76 0 011.3-1.68 1.76 1.76 0 100-1.18 2.89 2.89 0 00-2.46 2.86v7.59H0v1.21a8.27 8.27 0 006.42 7.82V23c0 1.72.9 2.33 1.75 2.33v1a7.58 7.58 0 007.29 7.82 7.58 7.58 0 007.29-7.82V14.87a4 4 0 013.79-4A4 4 0 0130.33 15v1.06A4.09 4.09 0 1035 19.51zM12.25 3.17a.58.58 0 11.58-.58.58.58 0 01-.58.58zM5.25 2a.58.58 0 11-.58.58.58.58 0 01.58-.58zM1.17 13.72v-.05h1.75v.07a5.79 5.79 0 004.16 5.46 6.55 6.55 0 003.92 0 5.8 5.8 0 004.17-5.46v-.07h1.16v.05a7.15 7.15 0 01-5.95 6.79 8.46 8.46 0 01-2.46.12 7 7 0 01-.8-.12 7.15 7.15 0 01-5.95-6.79zm7 10.45c-.53 0-.59-.81-.59-1.16v-1.24h2.31V23c0 .35-.06 1.16-.59 1.16zM30.92 23a2.92 2.92 0 112.91-2.92A2.92 2.92 0 0130.92 23z"/><path class="a" d="M30.92 18.34a1.75 1.75 0 101.75 1.75 1.75 1.75 0 00-1.75-1.75zm0 2.33a.58.58 0 11.58-.58.58.58 0 01-.58.58z"/></svg>