<svg xmlns="http://www.w3.org/2000/svg" width="35" height="35"><defs><style>.a{fill:#fff}</style></defs><path class="a" d="M34.83 5.34a.59.59 0 00-.83 0l-3.45 3.45a1.85 1.85 0 00-2.1.35l-.75.75-2.7.55a.55.55 0 00-.3.16L13.39 21.87l-1.05-1.05a1.82 1.82 0 00-2.58 2.58l1.63 1.6-2.09 2.12-1.05-1a1.82 1.82 0 10-2.58 2.58l5.84 5.84a1.82 1.82 0 102.58-2.58l-1-1.05 2.09-2.09 1.63 1.63a1.82 1.82 0 002.58-2.58l-1.05-1 11.23-11.36a.55.55 0 00.16-.3l.55-2.74.75-.75a1.85 1.85 0 00.35-2.1l3.45-3.45a.59.59 0 000-.83zm-7 5.72l1.31 1.31-.31 1.55-2.54-2.55zM13.27 33.67a.65.65 0 01-.93 0L6.5 27.83a.65.65 0 010-.93.67.67 0 01.93 0l5.84 5.84a.67.67 0 010 .93zm-1-3.63L10.13 28l2.09-2.09L14.31 28zm6.3-1.38a.64.64 0 010 .92.64.64 0 01-.92 0l-7-7a.65.65 0 01.92-.92zm-1-2.7l-3.27-3.27 2.1-2.09 2.51 2.51.82-.83-2.5-2.51.34-.34 1.34 1.34.82-.83-1.43-1.34.34-.34L20 19.6l.83-.82-1.34-1.34.34-.34 2.51 2.5.83-.82-2.51-2.51.34-.34 1.34 1.34.83-.83-1.36-1.34.34-.34 1.34 1.34.83-.83L23 13.93l.34-.34 2.51 2.51.82-.83-2.51-2.51.93-.92 3.26 3.26zm12.64-15.07l-.47.46-.92-.92.46-.47a.66.66 0 01.93.93z"/><path class="a" d="M11.83 15.39l4.84 2a.58.58 0 00.76-.31.58.58 0 000-.45l-2-4.84a8.16 8.16 0 10-3.6 3.6zM1.12 8.09a7 7 0 1113.15 3.38.57.57 0 000 .51l1.57 3.79-2.76-1.14a8.2 8.2 0 001-.88l-.84-.81A7 7 0 011.12 8.09z"/><path class="a" d="M10.47 12.76v-2.33h2.33a.58.58 0 00.59-.59v-3.5a.59.59 0 00-.59-.59h-2.33V3.42a.59.59 0 00-.59-.59h-3.5a.6.6 0 00-.59.59v2.33H3.46a.6.6 0 00-.59.59v3.5a.59.59 0 00.59.59h2.33v2.33a.59.59 0 00.59.59h3.5a.58.58 0 00.59-.59zM9.3 9.84v2.34H7V9.84a.58.58 0 00-.58-.58H4V6.92h2.38A.58.58 0 007 6.34V4h2.3v2.34a.58.58 0 00.58.58h2.34v2.34H9.88a.58.58 0 00-.58.58z"/></svg>