<svg xmlns="http://www.w3.org/2000/svg" width="35" height="35"><defs><style>.a{fill:#fff}</style></defs><path class="a" d="M8.47 32.5a17.32 17.32 0 009 2.49A17.6 17.6 0 0035 17.49a17.5 17.5 0 10-32.5 9L0 35zm-6.41-15a15.37 15.37 0 117.11 13l-.4-.26L3 32l1.7-5.74-.26-.4a15.48 15.48 0 01-2.38-8.37z"/><path class="a" d="M8.52 14.27a15.76 15.76 0 004.27 8.12 15.86 15.86 0 008.12 4.28c2 .38 5 .44 6.49-1l.81-.81a2.17 2.17 0 000-3.08L25 18.5a2.2 2.2 0 00-3.08 0l-.81.82a1.45 1.45 0 01-1.94 0l-3.25-3.38a1.27 1.27 0 010-1.8l.81-.82a2.17 2.17 0 000-3.07L13.43 7a2.18 2.18 0 00-3.08 0l-.82.81C8.37 9 8 11.44 8.52 14.27zm2.46-5c.86-.83.81-.85.91-.85a.18.18 0 01.09 0c3.43 3.45 3.29 3.25 3.29 3.35a.12.12 0 010 .09l-.81.81a3.33 3.33 0 000 4.7l3.25 3.38a3.51 3.51 0 004.85 0l.81-.82a.13.13 0 01.18 0c3.43 3.45 3.29 3.25 3.29 3.35a.12.12 0 010 .09l-.84.83c-.56.56-2.33.89-4.65.45A13.74 13.74 0 0114.24 21a13.81 13.81 0 01-3.71-7.06c-.44-2.37-.1-4.15.47-4.71z"/></svg>