<svg xmlns="http://www.w3.org/2000/svg" width="35" height="35"><defs><style>.a{fill:#fff}</style></defs><path class="a" d="M25.53 0H9.47A9.48 9.48 0 000 9.47v16.06A9.48 9.48 0 009.47 35h16.06A9.48 9.48 0 0035 25.53V9.47A9.48 9.48 0 0025.53 0zM33 25.53A7.43 7.43 0 0125.53 33H9.47a7.43 7.43 0 01-7.42-7.42V9.47a7.43 7.43 0 017.42-7.42h16.06A7.43 7.43 0 0133 9.47z"/><path class="a" d="M17.5 7.93a9.57 9.57 0 109.57 9.57 9.58 9.58 0 00-9.57-9.57zm0 17.07a7.52 7.52 0 117.5-7.5 7.52 7.52 0 01-7.5 7.5zm9.8-20.47a2.83 2.83 0 102.83 2.83 2.83 2.83 0 00-2.83-2.83zm0 3.61a.78.78 0 11.78-.78.78.78 0 01-.78.78z"/></svg>