<svg xmlns="http://www.w3.org/2000/svg" width="35" height="35"><defs><style>.a{fill:#fff}</style></defs><path class="a" d="M17.5 35A17.5 17.5 0 100 17.5 17.52 17.52 0 0017.5 35zm0-32.81A15.31 15.31 0 112.19 17.5 15.33 15.33 0 0117.5 2.19z"/><path class="a" d="M11.51 20.64l2.29-1-.64.64a1.1 1.1 0 00-.32.78v4.28a1.1 1.1 0 001.87.77L17 23.82l5 2.5a1.1 1.1 0 001.57-.78l2.85-15.69A1.09 1.09 0 0025 8.63L6.4 15.89a1.1 1.1 0 00-.19 1.94l4.28 2.73a1.08 1.08 0 001 .08zm12.41-9.25l-2.24 12.33-4.41-2.2a1.08 1.08 0 00-1.26.2l-1 1v-1.2l4.38-4.38a1.1 1.1 0 00-1.21-1.78l-7 3.05-2-1.26z"/></svg>