<svg xmlns="http://www.w3.org/2000/svg" width="30" height="30"><defs><style>.a{fill:#24a700}</style></defs><path class="a" d="M7.26 27.86A14.88 14.88 0 0015 30a15 15 0 10-12.86-7.29L0 30zM1.77 15a13.16 13.16 0 116.09 11.15l-.34-.23-4.95 1.51L4 22.51l-.22-.34a13.16 13.16 0 01-2-7.17z"/><path class="a" d="M7.3 12.24a13.25 13.25 0 0010.62 10.62c1.72.33 4.29.38 5.57-.85l.69-.7a1.85 1.85 0 000-2.62l-2.75-2.81a1.88 1.88 0 00-2.64 0l-.7.7a1.25 1.25 0 01-1.66 0l-2.78-2.9a1.08 1.08 0 010-1.53l.69-.7a1.85 1.85 0 000-2.63L11.51 6a1.86 1.86 0 00-2.64 0l-.7.69c-1 1.04-1.31 3.13-.87 5.55zM9.41 8c.74-.71.7-.73.78-.73h.08c2.94 3 2.82 2.79 2.82 2.87a.11.11 0 010 .08l-.7.69a2.85 2.85 0 000 4l2.79 2.89a3 3 0 004.16 0l.69-.7a.12.12 0 01.16 0C23.13 20.05 23 19.88 23 20l-.72.71c-.48.48-2 .76-4 .38A11.7 11.7 0 0112.21 18 11.74 11.74 0 019 12c-.38-2-.09-3.55.4-4z"/></svg>