<svg xmlns="http://www.w3.org/2000/svg" width="30" height="30"><defs><style>.a{fill:#24a700}</style></defs><path class="a" d="M21.88 0H8.12A8.13 8.13 0 000 8.12v13.76A8.13 8.13 0 008.12 30h13.76A8.13 8.13 0 0030 21.88V8.12A8.13 8.13 0 0021.88 0zm6.41 21.88A6.38 6.38 0 0122 28.29H8.12a6.37 6.37 0 01-6.36-6.36V8.12a6.36 6.36 0 016.36-6.36h13.76a6.37 6.37 0 016.41 6.33v13.79z"/><path class="a" d="M15 6.8a8.2 8.2 0 108.2 8.2A8.2 8.2 0 0015 6.8zm0 14.63A6.45 6.45 0 1121.43 15 6.44 6.44 0 0115 21.43zm8.4-17.55a2.43 2.43 0 102.43 2.43 2.43 2.43 0 00-2.43-2.43zm0 3.1a.67.67 0 11.67-.67.67.67 0 01-.67.69z"/></svg>