<svg xmlns="http://www.w3.org/2000/svg" width="30" height="30"><defs><style>.a{fill:#24a700}</style></defs><path class="a" d="M15 30A15 15 0 100 15a15 15 0 0015 15zm0-28.12A13.12 13.12 0 111.88 15 13.11 13.11 0 0115 1.88z"/><path class="a" d="M9.87 17.69l2-.86-.55.55a.9.9 0 00-.27.67v3.67a.94.94 0 001.6.66l2-2 4.29 2.14a.94.94 0 001.26-.43.62.62 0 00.08-.24l2.37-13.41a1 1 0 00-.77-1.08 1 1 0 00-.45 0L5.49 13.62A.93.93 0 005 14.85a.87.87 0 00.35.43L9 17.62a.91.91 0 00.86.07zM20.5 9.76l-1.92 10.57-3.78-1.88a.91.91 0 00-1.08.17l-.85.85v-1l3.75-3.76a.94.94 0 000-1.33.92.92 0 00-1-.19l-6 2.61-1.75-1.1z"/></svg>