<svg xmlns="http://www.w3.org/2000/svg" xmlns:xlink="http://www.w3.org/1999/xlink" width="1500" height="600"><defs><linearGradient id="b" x1="756.73" y1="43.47" x2="746.33" y2="781.83" gradientUnits="userSpaceOnUse"><stop offset="0" stop-color="#fff"/><stop offset=".5" stop-color="#c3ebf4"/><stop offset=".89" stop-color="#0664ac"/><stop offset=".99" stop-color="#0640ac"/></linearGradient><linearGradient id="a" x1="537.8" y1="40.44" x2="527.41" y2="778.74" gradientUnits="userSpaceOnUse"><stop offset="0" stop-color="#fff"/><stop offset="1" stop-color="#fff" stop-opacity="0"/></linearGradient><linearGradient id="c" x1="1034.35" y1="372.71" x2="763.29" y2="598.59" xlink:href="#a"/><linearGradient id="d" x1="1008.55" y1="342.7" x2="737.65" y2="568.45" xlink:href="#a"/><linearGradient id="e" x1="760.67" y1="43.48" x2="750.27" y2="781.89" xlink:href="#a"/><linearGradient id="f" x1="792" y1="267.59" x2="635.79" y2="708.45" xlink:href="#b"/></defs><g style="isolation:isolate"><path fill="url(#b)" d="M-5.13-132h1516.47v866.55H-5.13z"/><path d="M-5.13 194.88v539.67h1073.92C927.54 711.84 776.33 669.68 624 607.48 358.77 499.22 138.76 350.14-5.13 194.88z" style="mix-blend-mode:overlay" fill="url(#a)" opacity=".5"/><path d="M-5.13 479.61v254.94h1516.47V489.4c-193 91.88-457.06 148.51-748.24 148.51-301.37 0-573.66-60.67-768.23-158.3z" style="mix-blend-mode:overlay" fill="url(#c)" opacity=".5"/><path d="M1432.1-132c32.74 55.81 50.61 116.07 50.61 178.92 0 288.11-375.28 521.67-838.21 521.67-262 0-495.93-74.82-649.63-192v358h1516.47V-132z" style="mix-blend-mode:overlay" fill="url(#d)" opacity=".5"/><path d="M-5.13 426.59v308h1516.47V305.7C1058.11 810.18 228.35 521.92-5.13 426.59z" style="mix-blend-mode:overlay" fill="url(#e)" opacity=".5"/><path d="M-5.13 20.16v714.39h1516.47V212.9C970.36 660.53 281.47 237.08-5.13 20.16z" style="mix-blend-mode:overlay" fill="url(#f)" opacity=".5"/></g></svg>