<svg xmlns="http://www.w3.org/2000/svg" width="30" height="30"><path d="M26.75 19.38a15.85 15.85 0 01-5-.8 2.2 2.2 0 00-2.22.47l-3.15 2.38a17.41 17.41 0 01-7.82-7.82l2.31-3.07a2.25 2.25 0 00.55-2.29 15.94 15.94 0 01-.79-5A2.25 2.25 0 008.39 1H3.25A2.25 2.25 0 001 3.25 25.78 25.78 0 0026.75 29 2.25 2.25 0 0029 26.75v-5.12a2.25 2.25 0 00-2.25-2.25zm.69 7.37a.69.69 0 01-.69.69A24.22 24.22 0 012.56 3.25a.69.69 0 01.69-.69h5.14a.69.69 0 01.69.69A17.64 17.64 0 0010 8.72a.78.78 0 01-.24.8L7 13.06a.79.79 0 00-.07.82A19.33 19.33 0 0016.11 23a.8.8 0 00.83-.07l3.62-2.75a.67.67 0 01.7-.16 17.56 17.56 0 005.49.87.69.69 0 01.69.7z" fill="#ee5977" stroke="#ee5977" stroke-miterlimit="10"/></svg>