<svg xmlns="http://www.w3.org/2000/svg" width="50" height="50"><defs><style>.b{fill:#fff}.c{fill:#389adb}</style></defs><path d="M25-.08a25 25 0 11-25 25 25 25 0 0125-25z" fill="#03a9f4"/><path class="b" d="M25.4 47a21.9 21.9 0 1121.9-21.9A21.92 21.92 0 0125.4 47zm0-41.87a20 20 0 1020 20 20 20 0 00-20-20.02z"/><path class="b" d="M20 12.33a3.31 3.31 0 00-3.23 1.58 4.61 4.61 0 00-.83 3 18.22 18.22 0 001.49 6.5l.57 1.33-.09 1a52.3 52.3 0 00.19 7.41c.35 2.34.86 3.77 1.54 4.34a.82.82 0 00.82.26 1.49 1.49 0 00.76-.36c.64-.62.89-1.58 1.29-5 .43-3.64 1.18-4.87 3-4.87a2 2 0 011.8 1c.54.8.78 1.72 1.1 4.32s.51 3.49.9 4.16a1.68 1.68 0 001.33.84c.86 0 1.64-1.48 2.05-3.92a37.27 37.27 0 00.3-8.16l-.1-1 .5-1.27a25.13 25.13 0 001.4-4.86 14.16 14.16 0 00.1-2.14 3.54 3.54 0 00-.41-1.95 5.87 5.87 0 00-.82-1.2 3.23 3.23 0 00-1.42-.89l-.5 1a2.44 2.44 0 011.55 1 4.1 4.1 0 01.68 3A17.67 17.67 0 0132.53 23l-.62 1.55.09 2.02c.22 3.86-.26 8.34-1.08 9.92-.23.45-.66.44-.94 0s-.4-1.14-.69-3.64c-.36-3.06-.81-4.51-1.68-5.38a3.21 3.21 0 00-3.19-.76c-1.69.49-2.54 2.25-3 6.12a12.25 12.25 0 01-.64 3.58c-.3.6-.69.59-1 0-.8-1.57-1.28-6.24-1-10l.14-1.9-.45-1c-1.51-3.52-2-7-1.23-8.5A3.89 3.89 0 0118 14c.86-.73 1.86-.81 4.47-.35a12.54 12.54 0 005.35.07l.93-1.17-.65.11a11.25 11.25 0 01-5.38 0 17 17 0 00-2.72-.33z"/><path class="b" d="M30.59 38.19a2.05 2.05 0 01-1.64-1c-.42-.73-.61-1.58-.95-4.31-.31-2.52-.54-3.42-1-4.16a1.62 1.62 0 00-1.5-.81c-1.38 0-2.16.7-2.61 4.55-.42 3.57-.68 4.55-1.4 5.24a1.76 1.76 0 01-1 .46 1.19 1.19 0 01-1.1-.34c-.75-.63-1.29-2.13-1.66-4.56a53.61 53.61 0 01-.19-7.5l.09-1-.5-1.27a18.47 18.47 0 01-1.52-6.63 4.86 4.86 0 01.89-3.18A3.63 3.63 0 0119.94 12H20a16.53 16.53 0 012.8.33 11.45 11.45 0 005.24 0l.66-.12.92-.15-1.59 2h-.14a14.7 14.7 0 01-2.52.26 16.79 16.79 0 01-2.93-.32 15.14 15.14 0 00-2.44-.3 2.4 2.4 0 00-1.73.55 3.45 3.45 0 00-.68.87c-.73 1.41-.22 4.78 1.24 8.19l.48 1.12-.14 2c-.25 3.63.22 8.29 1 9.79a.63.63 0 00.2.27 1.83 1.83 0 00.15-.24 12.1 12.1 0 00.61-3.46c.45-4 1.38-5.89 3.23-6.43a3.59 3.59 0 013.54.86c.94.93 1.42 2.45 1.79 5.59.27 2.39.41 3.11.64 3.49.09.15.17.18.19.18s.07 0 .12-.14c.78-1.51 1.26-6 1-9.73l-.13-2.14.65-1.63a17.24 17.24 0 001.37-5.39 3.74 3.74 0 00-.53-2.79 2.11 2.11 0 00-1.33-.87l-.47-.1.8-1.64.29.09a3.5 3.5 0 011.57 1 6.18 6.18 0 01.89 1.3 3.89 3.89 0 01.44 2.1 15.35 15.35 0 01-.1 2.21 26.83 26.83 0 01-1.42 4.93l-.47 1.19.08.87A37.55 37.55 0 0133 34c-.46 2.65-1.34 4.19-2.41 4.19zm-5.13-11a2.37 2.37 0 012.1 1.12c.58.86.83 1.82 1.16 4.49s.49 3.4.86 4a1.3 1.3 0 001 .66c.52 0 1.27-1.14 1.7-3.63a36.88 36.88 0 00.29-8.05l-.11-1.05.54-1.35a26.52 26.52 0 001.38-4.77 15 15 0 00.09-2.08 3.22 3.22 0 00-.37-1.8 5 5 0 00-.76-1.11 2.8 2.8 0 00-1-.69l-.15.28a2.79 2.79 0 011.3 1 4.37 4.37 0 01.76 3.25 18 18 0 01-1.42 5.62l-.59 1.48.12 2c.23 3.94-.27 8.47-1.12 10.1a.86.86 0 01-.76.53 1 1 0 01-.81-.53c-.3-.5-.44-1.2-.74-3.78-.34-3-.77-4.36-1.58-5.16a2.85 2.85 0 00-2.79-.72c-1.53.44-2.31 2.12-2.72 5.81a12.33 12.33 0 01-.68 3.7c-.27.53-.59.64-.81.64s-.55-.11-.83-.66c-.83-1.62-1.33-6.37-1.07-10.17l.13-1.81-.41-.95c-1.57-3.66-2.06-7.2-1.22-8.81a4.37 4.37 0 01.85-1.09A3.14 3.14 0 0120 13a15.31 15.31 0 012.56.29 15.68 15.68 0 002.83.33 13.43 13.43 0 002.27-.23l.25-.32a11.8 11.8 0 01-5.22 0 16.22 16.22 0 00-2.69-.38h-.07a2.92 2.92 0 00-2.85 1.41 4.3 4.3 0 00-.77 2.79 18.18 18.18 0 001.47 6.37l.56 1.43-.11 1.13a52.57 52.57 0 00.2 7.32c.33 2.22.8 3.61 1.41 4.12.22.18.27.19.36.19h.18a1.17 1.17 0 00.56-.27c.56-.54.8-1.49 1.18-4.8s1.07-5.2 3.34-5.2z"/><path class="b" d="M22 15.16a2.07 2.07 0 00-2.08 1.07 3.23 3.23 0 00-.53 2 13 13 0 001 4.42l.34.92.62-.17-.35-.69c-1-2.39-1.3-4.75-.8-5.77a2.83 2.83 0 01.49-.67c.55-.49 1.2-.55 2.88-.23a8.66 8.66 0 003.28.08l.41-.89s-.13.13-.15.13a6.57 6.57 0 01-3.38 0 10.19 10.19 0 00-1.73-.2zm8.54.49l-.36.57a2 2 0 01.33.37 2.82 2.82 0 01.44 2 12.69 12.69 0 01-.89 3.75l-.4 1.05.6.19.32-.87a17.93 17.93 0 00.9-3.29 9.54 9.54 0 00.07-1.42 2.51 2.51 0 00-.26-1.33 3.25 3.25 0 00-.53-.81 1.39 1.39 0 00-.21-.21z"/><path class="b" d="M30.41 23.92l-1.06-.33.49-1.3a12.27 12.27 0 00.88-3.67 2.64 2.64 0 00-.39-1.89 2.3 2.3 0 00-.3-.33l-.16-.13.63-1 .21.17.2.2a4.35 4.35 0 01.6.91 2.65 2.65 0 01.28 1.45 10.09 10.09 0 01-.06 1.5 18.52 18.52 0 01-.91 3.35zm-.41-.64h.14l.25-.65a18.35 18.35 0 00.88-3.24 9.13 9.13 0 00.04-1.39 2.34 2.34 0 00-.23-1.23 4 4 0 00-.48-.77l-.1.15a2.61 2.61 0 01.22.27 3.08 3.08 0 01.48 2.19 12.5 12.5 0 01-.91 3.82zm-9.43.6l-.42-1.13a13.24 13.24 0 01-1-4.5 3.4 3.4 0 01.57-2.15A2.31 2.31 0 0122 14.91a9.51 9.51 0 011.81.22 6.39 6.39 0 003.22 0 .41.41 0 01.21-.14l.45-.08-.66 1.42h-.13a8.28 8.28 0 01-3.35-.08 9.2 9.2 0 00-1.55-.17 1.48 1.48 0 00-1.11.37 2.36 2.36 0 00-.43.59c-.47 1-.14 3.26.8 5.58l.39 1zM22 15.4a1.87 1.87 0 00-1.87 1 3 3 0 00-.5 1.9 12.75 12.75 0 00.94 4.33l.27.72h.15l-.19-.46c-1-2.48-1.32-4.88-.78-6a3.13 3.13 0 01.54-.74A2 2 0 0122 15.6a9 9 0 011.65.2 8 8 0 003.07.1l.11-.23a6.65 6.65 0 01-3.1-.06A9.49 9.49 0 0022 15.4z"/><path class="b" d="M20.37 34.41h-.08a.49.49 0 01-.36-.29c-1-2.37-.58-8.63.71-10.79a.48.48 0 01.83.5c-.73 1.21-1.15 4.1-1.13 6.56a11.81 11.81 0 011.36-4.56c.8-1.19 2.16-2.46 3.61-2.46a4.15 4.15 0 013.44 2.1 13.84 13.84 0 011.75 5.17 29.12 29.12 0 00-1-6.94.48.48 0 01.25-.63.47.47 0 01.63.25c.45 1 1.82 8.6.42 10.78a.48.48 0 01-.89-.22c0-.06-.44-5.73-2-7.84a3.2 3.2 0 00-2.66-1.71c-1.07 0-2.18 1.1-2.81 2-1 1.45-1.26 4.42-1.43 6.2-.13 1.24-.16 1.51-.35 1.71a.47.47 0 01-.29.17z"/><path class="c" d="M26.29 15.86l2.12-3.26z"/><path class="b" d="M25.756 15.501l2.113-3.254 1.09.708-2.113 3.254z"/><path class="c" d="M30.17 16.62l2-3.61z"/><path class="b" d="M29.608 16.318l1.961-3.612 1.143.62-1.961 3.612z"/></svg>