<svg xmlns="http://www.w3.org/2000/svg" width="50" height="50"><defs><style>.b{fill:#fff}</style></defs><path d="M25 0A25 25 0 110 25 25 25 0 0125 0z" fill="#03a9f4"/><path class="b" d="M25 46.89A21.9 21.9 0 1146.89 25 21.92 21.92 0 0125 46.89zM25 5a20 20 0 1020 20A20 20 0 0025 5z"/><path class="b" d="M21.53 33.6a16.45 16.45 0 01-4-.57 1.37 1.37 0 01-1.15-1.32v-5.19a1 1 0 011.92 0v4.72a10.14 10.14 0 005.78 0v-3.9a1 1 0 011.93 0v4.37A1.36 1.36 0 0125 33a9.86 9.86 0 01-3.47.6z"/><path class="b" d="M28.54 33.6a9.78 9.78 0 01-3.46-.6 1.37 1.37 0 01-1-1.31 1 1 0 011.82-.44 10.11 10.11 0 005.82 0v-4.72a1 1 0 111.92 0v5.18A1.37 1.37 0 0132.51 33a16.53 16.53 0 01-3.97.6z"/><path class="b" d="M35.24 29.74a7.37 7.37 0 01-2.48-.41 1.07 1.07 0 01-.6-.24 1 1 0 01-.34-.8 1 1 0 011.49-.81 6.73 6.73 0 004 .07V23a2.25 2.25 0 00-2.1-.88 1 1 0 01-.06-1.93c1.58-.05 3.5.66 4 2.34a.92.92 0 010 .29v5.27a1.24 1.24 0 01-1 1.21 11.7 11.7 0 01-2.91.44z"/><path class="b" d="M14.77 29.74a11.71 11.71 0 01-2.94-.42 1.24 1.24 0 01-1-1.21v-5.27a.92.92 0 010-.29 3.76 3.76 0 013.59-2.33.89.89 0 01.4.06 30.34 30.34 0 0020.05 0 1 1 0 011.24.56 1 1 0 01-.57 1.24 32.2 32.2 0 01-21.2.07 2 2 0 00-1.63.87v4.54a7 7 0 003.84 0 1 1 0 011.73.58 1.23 1.23 0 01-.94 1.18 7.28 7.28 0 01-2.57.42z"/></svg>