<svg xmlns="http://www.w3.org/2000/svg" width="50" height="50"><defs><style>.b{fill:#fff}</style></defs><path d="M25 0A25 25 0 110 25 25 25 0 0125 0z" fill="#03a9f4"/><path class="b" d="M25 46.9A21.9 21.9 0 1146.9 25 21.93 21.93 0 0125 46.9zM25 5a20 20 0 1020 20A20 20 0 0025 5z"/><path class="b" d="M30.54 12.61a15.43 15.43 0 00-2.81.31 11.38 11.38 0 01-5.38 0c-3.53-.65-4.92-.36-6 1.25a4.51 4.51 0 00-.83 3 18.13 18.13 0 001.49 6.5l.57 1.33v.59l1.52.41-.55-1.26-.45-1c-1.51-3.53-2-7-1.23-8.5a3.9 3.9 0 01.76-1c.86-.73 1.86-.81 4.47-.35a14.46 14.46 0 005.86 0c2.91-.51 4-.33 4.88.81a4.1 4.1 0 01.68 3 17.54 17.54 0 01-1.39 5.51l-.62 1.56-.38 1 1.32-.1v-.62l.5-1.27A25.25 25.25 0 0034.34 19a14.37 14.37 0 00.1-2.15 3.54 3.54 0 00-.41-2 5.87 5.87 0 00-.82-1.2 3.34 3.34 0 00-2.67-1z"/><path class="b" d="M20 26.75L17.07 26v-.88l-.5-1.26a18.71 18.71 0 01-1.52-6.68 5 5 0 01.9-3.24 3.75 3.75 0 013.56-1.79 16.74 16.74 0 012.9.32 11.15 11.15 0 005.2 0 16.74 16.74 0 012.86-.33h.05a3.88 3.88 0 013 1.19 6.09 6.09 0 01.91 1.33 4 4 0 01.46 2.15 15.56 15.56 0 01-.1 2.23 26.4 26.4 0 01-1.43 5l-.47 1.18v1l-2.52.19 1.27-3.26A17.19 17.19 0 0033 17.71a3.69 3.69 0 00-.59-2.7c-.65-.85-1.35-1.17-4.41-.63a14 14 0 01-6 0 13.88 13.88 0 00-2.42-.28 2.25 2.25 0 00-1.66.52 3.16 3.16 0 00-.64.83c-.71 1.36-.18 4.76 1.24 8.09zm-1.89-1.49h.2l-.49-1.13.3.76zm14.32-1.35l-.53 1.34h.1V25zm-16.24-8.22a4 4 0 00-.12.73 4.12 4.12 0 01.12-.73zm17.58-.25a1.91 1.91 0 01.1.34 1.22 1.22 0 00-.1-.34zM19.54 13.1a2.81 2.81 0 00-2.75 1.35l-.09.15a4 4 0 01.62-.71 3.25 3.25 0 012.28-.75 14.8 14.8 0 012.58.3 17.31 17.31 0 002.35.28 16.25 16.25 0 01-2.26-.31 15.91 15.91 0 00-2.73-.31zm10.85.05a3.16 3.16 0 012.81 1.26 2.77 2.77 0 00-.34-.42 2.88 2.88 0 00-2.32-.9 15.81 15.81 0 00-2.73.31 18.54 18.54 0 01-2.34.32 18.47 18.47 0 002.41-.29 14.93 14.93 0 012.51-.28z"/><path class="b" d="M32 26.65H18a1 1 0 110-1.93h14a1 1 0 110 1.93zm-1.6 2.8H19.6a1 1 0 010-1.93h10.8a1 1 0 010 1.93zm-.4 2.82H20a1 1 0 010-1.92h10a1 1 0 010 1.92zm-.41 2.83h-9.21a1 1 0 010-1.93h9.21a1 1 0 010 1.93zm-.42 2.78h-8.34a1 1 0 110-1.93h8.34a1 1 0 010 1.93z"/><path class="b" d="M27.8 37.88h-5.62a1 1 0 01-1-.86L20 25.79a1 1 0 01.24-.75 1 1 0 01.72-.32h8a1 1 0 011 1.07L28.76 37a1 1 0 01-.96.88zM23.05 36h3.89l1-9.3h-5.88z"/></svg>