<svg xmlns="http://www.w3.org/2000/svg" width="50" height="50"><defs><style>.b{fill:#fff}</style></defs><path d="M25-.07a25 25 0 11-25 25 25 25 0 0125-25z" fill="#03a9f4"/><path class="b" d="M25 46.82a21.9 21.9 0 1121.9-21.89A21.92 21.92 0 0125 46.82zM25 5a20 20 0 1020 20A20 20 0 0025 5z"/><path class="b" d="M25 38.8a13.88 13.88 0 1113.88-13.87A13.89 13.89 0 0125 38.8zM25 13a12 12 0 1012 12 12 12 0 00-12-12z"/><path class="b" d="M12.31 28.64a4.1 4.1 0 010-8.19 1 1 0 110 1.93 2.17 2.17 0 000 4.34 1 1 0 110 1.92zm25.38 0a1 1 0 110-1.92 2.17 2.17 0 000-4.34 1 1 0 110-1.93 4.1 4.1 0 010 8.19zM25 36a11.43 11.43 0 01-5.44-1.36 10.21 10.21 0 01-5.49-8.91 1 1 0 011.93 0 8.29 8.29 0 004.47 7.22 9.61 9.61 0 009.05 0A8.3 8.3 0 0034 25.69a1 1 0 011.92 0 10.2 10.2 0 01-5.48 8.91A11.43 11.43 0 0125 36zm4.35-11.77a2.56 2.56 0 112.55-2.55 2.55 2.55 0 01-2.55 2.55zm0-3a.48.48 0 10.47.48.47.47 0 00-.47-.51zm-8.69 3a2.56 2.56 0 112.56-2.55 2.56 2.56 0 01-2.56 2.55zm0-3a.48.48 0 10.48.48.47.47 0 00-.48-.51z"/></svg>