<svg xmlns="http://www.w3.org/2000/svg" width="50" height="50"><defs><style>.b{fill:#fff}</style></defs><path d="M25 0A25 25 0 110 25 25 25 0 0125 0z" fill="#03a9f4"/><path class="b" d="M25.4 47.06a21.9 21.9 0 1121.9-21.9 21.92 21.92 0 01-21.9 21.9zm0-41.87a20 20 0 1020 20 20 20 0 00-20-20z"/><path class="b" d="M20.62 31.46a15.94 15.94 0 01-3.92-.57 1.12 1.12 0 01-1-1.08V22.3c.62-1.94 2.84-2.81 4.77-2.81 2.31 0 4.05 1.17 4.33 2.91v7.41a1.19 1.19 0 01-.8 1.06 9.67 9.67 0 01-3.38.59zm-3.44-1.94a14.16 14.16 0 003.44.49 8 8 0 002.82-.48v-7c-.22-1.14-1.61-1.65-2.9-1.65s-2.91.54-3.36 1.71zm-4.96-1.92a11.48 11.48 0 01-2.88-.42 1 1 0 01-.85-1v-5.47c.48-1.5 2.18-2.17 3.64-2.17 1.78 0 3.12.92 3.33 2.28v5.38a1 1 0 01-.77 1 7.24 7.24 0 01-2.47.4zm-2.29-1.76a9.54 9.54 0 002.29.31 5.59 5.59 0 001.84-.29V21c-.15-.7-1.05-1-1.9-1a2.43 2.43 0 00-2.23 1.07zm19.45 5.62a9.67 9.67 0 01-3.38-.59 1.19 1.19 0 01-.89-1.06V22.4c.28-1.74 2-2.91 4.33-2.91 1.93 0 4.15.87 4.77 2.81v7.51a1.12 1.12 0 01-1 1.08 15.94 15.94 0 01-3.83.57zm-2.82-1.93a8 8 0 002.82.48 14.09 14.09 0 003.44-.49v-6.88c-.45-1.17-2-1.71-3.36-1.71s-2.68.51-2.9 1.65zm11.22-1.93a7.24 7.24 0 01-2.51-.44 1 1 0 01-.77-1v-5.34c.21-1.36 1.55-2.28 3.33-2.28 1.46 0 3.16.67 3.64 2.17v5.49a1 1 0 01-.85 1 11.48 11.48 0 01-2.84.4zm-1.84-1.74a5.59 5.59 0 001.84.29 9.54 9.54 0 002.29-.31v-4.78A2.43 2.43 0 0037.84 20c-.85 0-1.75.31-1.9 1z"/><path class="b" d="M25.1 27.25a31.92 31.92 0 01-13.18-3 1 1 0 01-.48-1.25 1 1 0 011.27-.49c8.46 3.82 16.43 3.82 24.38 0a1 1 0 01.83 1.74 29.36 29.36 0 01-12.82 3z"/><rect class="b" x="19.55" y="25" width="1.69" height="2.15" rx=".53"/><path class="b" d="M20.71 27.8h-.62a1.18 1.18 0 01-1.19-1.18v-1.09a1.19 1.19 0 011.19-1.19h.62a1.19 1.19 0 011.19 1.19v1.09a1.18 1.18 0 01-1.19 1.18zm-.5-1.31h.38v-.84h-.38z"/><rect class="b" x="28.69" y="25" width="1.69" height="2.15" rx=".53"/><path class="b" d="M29.85 27.8h-.63A1.18 1.18 0 0128 26.62v-1.09a1.19 1.19 0 011.18-1.19h.63A1.19 1.19 0 0131 25.53v1.09a1.18 1.18 0 01-1.15 1.18zm-.51-1.31h.39v-.84h-.39z"/><rect class="b" x="36.6" y="22.16" width="1.69" height="2.15" rx=".53"/><path class="b" d="M37.76 25h-.63A1.18 1.18 0 0136 23.77v-1.08a1.18 1.18 0 011.18-1.19h.63a1.18 1.18 0 011.18 1.19v1.08A1.18 1.18 0 0137.76 25zm-.51-1.31h.39v-.84h-.39z"/><rect class="b" x="11.65" y="22.31" width="1.69" height="2.15" rx=".53"/><path class="b" d="M12.8 25.11h-.62A1.18 1.18 0 0111 23.93v-1.09a1.18 1.18 0 011.19-1.18h.62A1.18 1.18 0 0114 22.84v1.09a1.18 1.18 0 01-1.2 1.18zm-.5-1.3h.38V23h-.38z"/></svg>