<svg xmlns="http://www.w3.org/2000/svg" width="50" height="50"><defs><style>.b{fill:#fff}</style></defs><path d="M25 0A25 25 0 110 25 25 25 0 0125 0z" fill="#03a9f4"/><path class="b" d="M25 46.9A21.9 21.9 0 1146.9 25 21.93 21.93 0 0125 46.9zM25 5a20 20 0 1020 20A20 20 0 0025 5z"/><path class="b" d="M33 24.66A5.7 5.7 0 1137 23a5.66 5.66 0 01-4 1.66zm0-9.46a3.77 3.77 0 102.67 1.1A3.75 3.75 0 0033 15.2z"/><path class="b" d="M26.904 23.892l2.362-2.291 1.336 1.378-2.361 2.29z"/><path class="b" d="M14 37.64a.44.44 0 01-.34-.14.48.48 0 010-.68L27 23.51a.45.45 0 01.34-.15.45.45 0 01.34.15l.58.57a.48.48 0 11-.68.68l-.24-.23-13 13a.47.47 0 01-.34.11z"/><path class="b" d="M15 38.63a.51.51 0 01-.34-.14.48.48 0 010-.68l13-13-.24-.24a.48.48 0 010-.68.5.5 0 01.68 0l.58.58a.5.5 0 010 .68L15.33 38.49a.48.48 0 01-.33.14zm7.27-13.32a1 1 0 01-.68-.29L17 20.46a1 1 0 111.36-1.37L23 23.66a1 1 0 01-.68 1.65z"/><path class="b" d="M17.53 20.69a1 1 0 01-.25 0l-4.11-1.1a1 1 0 11.5-1.86l4.1 1.1a1 1 0 01.68 1.17 1 1 0 01-.92.69zm5.22 2.77a.45.45 0 00-.27.12l-.4.4-.17.17-.4.4a.38.38 0 000 .54L24 27.57l.5-.57-2.19-2.19.13-.13.17-.17.13-.14 2.19 2.19.53-.55L23 23.58a.36.36 0 00-.27-.12zM26 26.57l-.54.55L35.8 37.43a.38.38 0 00.55-.53zm-1 1l-.53.55 10.29 10.3a.4.4 0 00.54 0 .38.38 0 000-.54L25.05 27.57z"/><path class="b" d="M13.41 19.58a1 1 0 01-.93-.71l-1.1-4.1a1 1 0 011.86-.5l1.1 4.1a1 1 0 01-.68 1.18 1.07 1.07 0 01-.25.03z"/></svg>