<svg xmlns="http://www.w3.org/2000/svg" width="20" height="20"><path d="M19.49 14.75L17 12.27a1.76 1.76 0 00-2.49 0l-1.13 1.13a1.35 1.35 0 01-1.88 0L6.6 8.49a1.33 1.33 0 010-1.88l1.13-1.13a1.77 1.77 0 000-2.48L5.24.51a1.76 1.76 0 00-2.48 0l-.91.9a6.36 6.36 0 000 9l7.77 7.76a6.33 6.33 0 009 0l.91-.9a1.77 1.77 0 00-.04-2.52zM3.59 1.34a.59.59 0 01.83 0L6.9 3.82a.59.59 0 010 .83l-.41.41-3.32-3.31zm6.85 16L2.68 9.55a5.17 5.17 0 01-.32-7l3.3 3.35a2.5 2.5 0 00.11 3.42l4.9 4.9a2.5 2.5 0 003.42.11l3.31 3.31a5.15 5.15 0 01-6.96-.33zm8.22-.9l-.42.41-3.31-3.31.41-.42a.6.6 0 01.83 0l2.49 2.49a.59.59 0 010 .8z" fill="#414141"/></svg>