<svg version="1.0" xmlns="http://www.w3.org/2000/svg" width="933.333" height="933.333" viewBox="0 0 700 700"><path d="M317.5 2c-9.9 2.5-19.8 8.4-25.1 14.9l-2.2 2.7 9.2 18.5c5.1 10.1 12.4 26.6 16.3 36.4 6 15.3 8.9 23.8 17.3 51 3 9.9 9.7 40.7 11.6 53.4 1 6.8 1.3 8.3 1.8 8.8.2.2 5.4.6 11.4.9 9.3.3 11.1.2 11.6-1.2.6-1.5-.1-59.6-.8-68.9-.2-2.8-.7-9.1-1-14-.4-5-.9-10.6-1.1-12.5-.2-1.9-.6-6.4-1-10-.4-3.6-.9-8.1-1.1-10-.2-1.9-.6-5.5-.9-8-.6-5.8-1.3-10.5-2-15.5-.4-2.2-.9-5.4-1.1-7-.2-1.7-.6-4.1-.9-5.5-.2-1.4-.7-4.3-1-6.5-.3-2.3-.7-5-.9-6-.2-1.1-.9-4.9-1.6-8.5-.6-3.6-1.5-7.5-2-8.7-2.1-5.2-23.5-7.7-36.5-4.3zm266.6 12c-11.3 12.5-25.3 21.4-38.7 24.5-8.9 2-23 1.2-38.9-2.5-18.5-4.2-21-4.5-34.5-4.4-17.9.2-37.2 5-49.6 12.5-18.7 11.4-32.3 34.7-32.4 55.4 0 24.6 19 44.5 51.5 54 12 3.5 19 4.4 31 4 11.5-.4 21.8-2.5 32.4-6.7 8.2-3.2 19.2-9.1 24.6-13 21.2-15.6 37.2-33.8 47.5-54.1 10.5-20.7 15.2-41.1 15.1-65.5 0-6.3-.1-11.6-.4-11.8-.2-.2-3.6 3.2-7.6 7.6z"/><path d="M219.7 179.6c-.1.1-4.5.5-9.7.8-5.2.3-10.4.7-11.5 1-1.1.2-4.2.7-6.8 1-21.6 3.2-47.9 13.8-65.7 26.5-33.4 23.8-57.4 63.1-67 109.6-1.1 5.4-2.2 11.4-2.5 13.4-.2 2-.8 6.5-1.2 10.1-1 8.3-1 45.2 0 55 1.3 12 1.7 15.3 2.2 18 .3 1.4.7 4.5 1 6.9.7 7.1 4.4 27 6.6 35.6 1.2 4.4 2.3 9.1 2.6 10.5 1 5.5 11.4 35.4 15.8 45.6 11 25.3 25.3 48.5 42.7 69.1 12.2 14.4 38.8 38.2 41.7 37.2.5-.2-4.1-7.6-10.2-16.4-25.6-36.5-35-54.8-50.3-97.5-3-8.2-9.6-30.5-10.8-36.5-.3-1.1-1.1-5.2-2-9-2.3-10.9-2.7-13-4.1-22.9-.5-3.4-1-12.3-2-30.6-.6-11.5-.7-37.8-.1-43.9 3.6-36.7 15.7-72.6 32.7-96.4 13.8-19.4 40.9-40.1 63.4-48.4 12.1-4.5 32.1-6.1 48-3.8 7.1 1 27.2 6.3 47 12.5 65.2 20.2 76.2 21.4 117.5 13 16-3.2 52.1-9.5 62-10.7 9.8-1.2 32.6-.9 40.5.6 32.2 6 56 22 74.8 50.3 4.3 6.3 7.7 11.8 7.7 12.1 0 .4 1.6 3.9 3.6 7.9 6.1 12.5 14.6 39.6 16.8 53.8.3 1.9.8 4.6 1.1 6 .3 1.4.8 4.7 1.1 7.5.3 2.7.7 5.2.9 5.5.9 1.5 2 21.5 2 36.5 0 14.9-1 30.8-2 32.4-.2.4-.6 2.4-.9 4.6-.7 4.5-1.6 7.6-5.8 22-6.6 22.1-12.1 37.1-18.6 50.3-4 7.9-8.9 16.8-10.5 18.7-.4.5-2.3 3.2-4 6-9 13.8-22 30.9-32.7 42.9-30.5 34.6-74.5 67.3-119.7 89.2-21.2 10.3-31.3 12.7-31.3 7.5 0-1.5 9.1-14.5 12-17.1.3-.3 3-3.7 6.1-7.5 36.7-45.5 54.2-92.8 48.4-130.5-4.7-30.7-28.1-55.2-58.8-61.6-7.2-1.5-24.2-1.9-32.7-.8-28.2 3.7-51.2 20.6-60.6 44.8-6.7 16.9-7.7 42.8-2.9 69.6.3 1.4.8 4.3 1.1 6.5.3 2.2 1.9 11 3.4 19.5 1.6 8.5 3.2 17.1 3.5 19 .3 1.9 1.1 6.2 1.7 9.5 1.6 8.9 1.3 21.6-.6 25.6-3.1 6.3-8.7 8.5-17 6.7-10.1-2.1-17.6-6.8-29.1-18.2-13.1-12.9-24-27.6-38.2-51.1C197.5 563.1 183 521.1 174 470c-2.6-14.9-3.1-20.3-3.4-37.1-.6-28.5 3.5-43.1 18.2-65.5 15.9-24.1 33.4-35.4 54.9-35.5 12.2-.1 25.8 3.8 44.3 12.8 11.4 5.5 23.1 10.9 38.5 17.8 18.9 8.4 32.3 9.2 49.9 3 5.1-1.7 35.5-14.6 46.1-19.4 21.1-9.7 34.9-13.3 52-13.5 13.6-.3 22.6 2.9 31.1 11 17.5 16.8 28.5 51.4 28.7 89.9.1 28.8-3.8 44.6-22.6 91.5-3 7.4-5.2 13.9-4.9 14.4.8 1.4 9.6-8.7 15.8-18 10.2-15.5 18.7-33.5 25.7-54.5 2.8-8.3 7.7-26.7 8.2-31.2.7-4.9 1.6-11.1 2.1-14.2 1.2-7.1.5-38.3-1.1-46.5-.3-1.4-.7-4.1-.9-6-3.3-25.6-15.1-50.7-29.7-63.2-12.5-10.6-27.7-15.9-46.9-16-13.9-.2-23.2 1.2-35.5 5.4-9.1 3.1-14.5 5.5-45 21-17.2 8.6-21.5 10.7-27 12.6-19.1 6.9-37.3 3.3-57-11.2-27.7-20.4-57.8-32.5-82.5-33.1-16.8-.5-29.4 2.5-42 9.9-25.7 15.1-48.6 49.9-53.6 81.4-.3 1.9-.8 4.4-1 5.6-3.6 18.4-2.1 45.8 4.3 74.1 1.3 6 2.6 11.8 2.8 12.8 1.9 8.9 10.5 36 14 44.2.7 1.6 3.6 8.6 6.5 15.5 8.3 19.4 26.2 54 40.8 78.9 20.5 35 47.4 63.2 67.8 71.1 7.3 2.9 20.5 3.5 27.7 1.3 6.1-1.8 13.1-8.4 14.5-13.6 1.2-4.4.6-19.5-1.3-30.7-.3-1.4-.7-5.4-1-9-.3-3.6-.8-8.1-1-10-.3-1.9-.7-6.4-1-10-.3-3.6-.7-7.6-1-9-.2-1.4-.7-6.1-1.1-10.5-.3-4.4-.8-9.4-1-11-1.1-8.8-1-21.1.2-27.4 3.3-17.4 14.1-32.9 29.7-42.4 8.1-4.9 15.4-7 24.7-7.1 25.7-.1 46 12.1 56.5 33.9 5.8 12 6.5 15.2 6.1 26.5-.8 18.7-9.7 40-34.1 81.5-29.8 50.8-29.6 50.4-25.7 53.7 5.6 4.9 18.3 6.9 27.8 4.4 5.5-1.5 33.6-12.4 49.4-19.3 35.9-15.4 51.5-25.1 83.1-51.4 48.3-40.2 86.4-95.1 105.7-152.4 3.5-10.4 5.2-16.1 6.8-22.5 2.2-9 6.5-32 7.1-38 1-9.7 1-41.4 0-51-.8-8-1.3-11.3-2.7-20-.5-3-1.2-7.3-1.6-9.5-1-6.7-5.1-21.5-8.3-30.1-15.9-43.3-45.1-77.7-80.9-95.4-18.1-8.9-31-12.6-54.2-15.5-5.3-.7-29.6-.6-37 .1-6.3.5-30.4 3.9-34.5 4.8-3.5.7-26.6 5.6-36 7.7-15 3.1-29.6 5-37.8 4.8-16.1-.4-23.1-2.3-66.7-17.7-26.4-9.3-37.2-12-53.3-13-6.5-.4-11.9-.7-12-.6z"/><path d="M229.8 376.8c-20.5 11.5-29.8 29.5-30.4 59.2-.2 9.5.1 16.9 1 21.5.8 3.8 1.7 8.8 2 11 .4 2.2 1.1 5.3 1.6 7 .5 1.6 1.1 4.1 1.4 5.5 1.4 8.4 11.2 38.1 15.7 47.4 3.3 7 5.3 7.4 3.8.7-.9-4-1.2-5.8-2.8-15.1-.6-3.6-1.6-8.5-2.1-11s-1.1-6.1-1.4-8c-.3-1.9-.9-7.1-1.5-11.5s-1.3-9.8-1.6-12c-.3-2.2-.8-13.5-1-25-.7-32.6 1.8-41.9 17-61.9 4.1-5.5 7.5-10.3 7.5-10.8 0-1.6-2.5-.7-9.2 3z"/></svg>