<svg version="1.0" xmlns="http://www.w3.org/2000/svg" width="933.333" height="933.333" viewBox="0 0 700 700"><path d="M324.9 3.5c-.2.1-3.8.6-7.9 1-7.9.7-26.7 3.3-35.4 5-12.9 2.5-48.2 12.9-56.1 16.5-1.1.5-4.9 2.1-8.5 3.5-71.2 28.9-137.1 88.9-172.6 157.3-3.1 5.9-5.9 11.1-6.3 11.7-.4.5-2.9 6.2-5.5 12.5-2.7 6.3-5.4 12.8-6.1 14.5-2.4 5.7-8.6 24.6-11.1 34-2.2 8.2-6.3 27.2-7 32.5-.3 2.5-.8 4.7-.9 5.1-.2.3-.7 3.9-1.1 8-.3 4-.8 7.6-.9 7.9-.6 1.1-1.9 26.1-1.9 37.5 0 11.7 1.1 33 1.9 37 .2 1.1.7 4.2 1 7 3.8 34.6 15.5 73.5 32.3 108 25 51.2 61.6 94.6 108.7 129 6.6 4.8 14.3 10.1 17 11.7 2.8 1.6 7.9 4.7 11.5 6.9 23.5 14.3 62 30 90.1 36.8 21.7 5.2 31.3 6.8 58.9 9.7 7 .7 41.1.7 50.9 0 6.6-.5 24.3-2.7 34.1-4.2 30-4.6 73.7-19.5 102.7-35 19.5-10.4 48.1-29.6 60.3-40.3 17.5-15.5 26.3-24.1 36.8-35.8 26.4-29.6 50.1-67.7 63.2-101.8 2.3-6.1 4.6-11.9 5.1-13 3.6-8.4 12.9-43 14.4-54 .3-2.2.8-5 1.1-6.3.7-3.6 2.4-16.9 3.2-25.7 1.4-16.5.7-63.1-1.2-72.2-.3-1.2-.7-4.8-1.1-8-.3-3.2-.8-6.7-1-7.8-.3-1.1-.7-3.1-.9-4.5-.2-1.4-.7-3.6-1-5-.3-1.4-.8-3.7-1-5.2-1.8-11.2-10.5-39.7-17.7-57.8-4.4-11.2-17.4-37.4-23.6-47.6-35.6-58.7-84.2-103.6-144.5-133.6-29.3-14.5-56.2-23.5-91.3-30.4-1-.2-3.5-.6-5.5-.9-2-.3-4.6-.7-5.9-1-1.3-.2-4.6-.7-7.5-1-2.8-.3-6.9-.8-9.1-1.2-4.4-.6-60.1-1.4-60.6-.8z"/></svg>