<svg xmlns="http://www.w3.org/2000/svg" width="45" height="45"><defs><style>.a{fill:#fff}</style></defs><path class="a" d="M23.67 43.52c-.06-.22.12-.42.19-.54.44-.78.89-1.56 1.35-2.33a22.47 22.47 0 001.92-3.79 3.74 3.74 0 00.2-2.49 3.69 3.69 0 00-3.06-2.69 3 3 0 00-2.47.6 4 4 0 00-1.56 3.59c.17 1.79.36 3.58.55 5.38A1.27 1.27 0 0120 42.7a2.35 2.35 0 01-1.69 0 4.51 4.51 0 01-1.64-1.08 14.3 14.3 0 01-2.51-3.23c-.74-1.26-1.42-2.56-2-3.87a25.31 25.31 0 01-1.27-3 23.85 23.85 0 01-.77-3 11.39 11.39 0 01-.17-4A8.15 8.15 0 0112 20.09a4.74 4.74 0 013.45-1.65 7.28 7.28 0 012.91.63 11.92 11.92 0 012.6 1.53 3.39 3.39 0 003.58.52c.9-.4 1.8-.9 2.69-1.36a7.33 7.33 0 013.71-1 4.15 4.15 0 014 2.61 10.34 10.34 0 01.78 3.5 11.54 11.54 0 01-.46 4.21 14.23 14.23 0 01-1.93 4.21c-.23.31-.47.61-.73.9h-.12l.17-.43c.34-.89.71-1.72 1-2.61a10.44 10.44 0 00.35-4.76 7.75 7.75 0 00-1.31-3.87 2.35 2.35 0 00-1.8-1.06A6 6 0 0028 22c-1.08.46-2.15.95-3.23 1.41a3.5 3.5 0 01-2.6.21 18.77 18.77 0 01-1.86-.78 19.77 19.77 0 00-2.69-1.22 3.49 3.49 0 00-2.84.26 5 5 0 00-1.56 1.53A6.28 6.28 0 0012 26.22a11.37 11.37 0 00.12 3.19 26.71 26.71 0 00.61 3.06 29 29 0 001 3 21.26 21.26 0 002.14 3.81 10.3 10.3 0 001.82 2.08A2.92 2.92 0 0019 42a.82.82 0 001-.55.76.76 0 000-.21 4.87 4.87 0 000-1.08c-.22-1.34-.49-2.69-.69-4a8.55 8.55 0 01.14-3.16 4.23 4.23 0 012-2.76 5.54 5.54 0 013.11-.69A4.58 4.58 0 0129 34a9 9 0 01-.85 4 17 17 0 01-2.58 3.85c-.26.32-.52.66-.77 1a.22.22 0 000 .31.21.21 0 00.23 0 3.3 3.3 0 00.74-.22 24.56 24.56 0 005.38-3.25 21.47 21.47 0 003.9-4 16.23 16.23 0 002.12-3.59c.32-.82.6-1.66.84-2.5a10.87 10.87 0 00.51-3.25 19.63 19.63 0 00-.52-4.62 10.9 10.9 0 00-2.12-4.38 6.44 6.44 0 00-3.28-2.1 7.89 7.89 0 00-3-.2c-1 .12-2 .34-2.95.51s-1.8.38-2.69.45a10.47 10.47 0 01-4.22-.7c-1.05-.34-2.1-.66-3.15-1a7.67 7.67 0 00-2.38-.26 5.4 5.4 0 00-2.63.89 8.17 8.17 0 00-3.38 3.59 13.45 13.45 0 00-1.35 5.21c0 1.1 0 2.21.09 3.31a11.27 11.27 0 00.28 1.74 24.55 24.55 0 00.66 2.69c.34 1.06.73 2.09 1.17 3.11a21 21 0 002.39 3.93c.14.21.28.42.41.63a.34.34 0 01-.22 0A14.89 14.89 0 019 36.62a17.7 17.7 0 01-3.09-5.95 22.78 22.78 0 01-.78-3.46S5 26.5 5 25.88a15 15 0 011.28-8.44 10.18 10.18 0 012.3-3 9.25 9.25 0 011.79-1.31 10.26 10.26 0 013.16-1 9 9 0 014.42.36c1 .36 2.06.74 3.11 1.09a6.09 6.09 0 002.81.3c.89-.13 1.79-.34 2.69-.53a17.25 17.25 0 015.21-.5 9.3 9.3 0 013 .77 9.15 9.15 0 013.46 2.7 11.5 11.5 0 012.27 4.75 22.08 22.08 0 01.4 2.69 14.23 14.23 0 01-.24 4 19.09 19.09 0 01-1.68 4.94 21.78 21.78 0 01-4.38 6 28.7 28.7 0 01-3.42 2.69 31.71 31.71 0 01-5.45 2.44 1.92 1.92 0 01-.54.11c-.67.06-1.39-.05-1.52-.42z"/><path class="a" d="M16.14 24c-.17.24-.33.48-.52.71a4.62 4.62 0 00-1 3.11 23 23 0 00.38 4.05l.32 1.79a.67.67 0 010 .2c-.1-.19-.21-.37-.29-.56a20 20 0 01-1.13-3.95 6.87 6.87 0 01-.16-2.35 3.42 3.42 0 012.36-3.08zm3.09-21.81a31 31 0 012.35 5.57 31.8 31.8 0 011.07 4.81h1.43a52.33 52.33 0 00-.16-5.74 50.12 50.12 0 00-.79-5.59 3.48 3.48 0 00-2.54-.09 3.18 3.18 0 00-1.36 1.04zm6.18 5.67a4.15 4.15 0 011.08-3.49A4.86 4.86 0 0129.18 3c2.69-.52 3.84.9 5.85.26a4.93 4.93 0 002.53-2 8.74 8.74 0 01-1 5c-1.27 2.33-4 4.68-7.06 4.35-1.27-.08-3.58-.85-4.09-2.75z"/></svg>