<svg xmlns="http://www.w3.org/2000/svg" width="50" height="50"><path d="M47.14 47.44l-2.21-12.95a3.68 3.68 0 00-2.58-2.92l-6-1.8A6.65 6.65 0 0031.76 24c.19-.21.37-.42.53-.63a11.51 11.51 0 002.37-5.14h.46A2.18 2.18 0 0037.29 16v-1.07A2.19 2.19 0 0036.16 13v-2.64a.73.73 0 10-1.46 0v3a5.06 5.06 0 00-1 .28h-.11l-.23.11V7.9a3 3 0 00-3-2.95h-2a3 3 0 00-1.92.68l-.2.16a2 2 0 01-2.58 0l-.2-.16A3 3 0 0021.59 5h-2a3 3 0 00-3 3v5.9l-.23-.11h-.11a4.86 4.86 0 00-1-.28V5.76a4.31 4.31 0 014.3-4.3H30.4a4.31 4.31 0 014.3 4.3v1.16a.73.73 0 101.46 0V5.76A5.77 5.77 0 0030.4 0H19.6a5.77 5.77 0 00-5.76 5.76V13a2.19 2.19 0 00-1.13 1.9V16a2.18 2.18 0 002.17 2.18h.46a11.51 11.51 0 002.37 5.14c.16.21.34.42.53.63a6.66 6.66 0 00-4.62 5.78l-6 1.8a3.68 3.68 0 00-2.58 2.92l-.9 5.26a.72.72 0 00.6.84.74.74 0 00.88-.55l.89-5.26A2.23 2.23 0 018.08 33l5.52-1.7v1.45a3.65 3.65 0 00-2.79 2.31 3.74 3.74 0 00-.22 1l-.53 6.85a1.87 1.87 0 001.86 2h.91a.73.73 0 100-1.46h-.91a.43.43 0 01-.3-.13.41.41 0 01-.1-.3l.53-6.85a2.58 2.58 0 01.13-.6 2.23 2.23 0 012.08-1.41h.13a2.19 2.19 0 012.05 1.31 2.47 2.47 0 01.17.7l.53 6.83a.41.41 0 01-.1.3.39.39 0 01-.29.13h-.91a.73.73 0 100 1.46h.91a1.85 1.85 0 001.36-.6 1.82 1.82 0 00.49-1.4l-.53-6.85a3.86 3.86 0 00-.28-1.16 3.61 3.61 0 00-2.73-2.14v-1.88l2.52-.76c.23.48.68 1.53 1.58 3.77s2 5.18 3.11 8v.07c.72 1.89 1.42 3.73 2 5.33a.74.74 0 001.38 0c.59-1.6 1.29-3.44 2-5.33v-.07c1.08-2.82 2.2-5.73 3.11-8s1.35-3.3 1.58-3.78l2.52.76v4.33a3.78 3.78 0 101.46 0V31.3l5.6 1.7a2.23 2.23 0 011.57 1.77l2.21 12.92a.73.73 0 01-.72.85H5a.73.73 0 01-.72-.85L5 43.41a.73.73 0 00-1.44-.24l-.73 4.27A2.19 2.19 0 005 50h40a2.19 2.19 0 002.16-2.56zM34.71 14.85a3.44 3.44 0 01.71-.09.73.73 0 00.35-.09.58.58 0 01.06.26V16a.71.71 0 01-.71.71h-.41v-1.9zm-19.42 1.9h-.41a.71.71 0 01-.71-.71v-1.11a.58.58 0 01.06-.26.73.73 0 00.35.09 3.44 3.44 0 01.71.09v1.9zm1.47.82v-1.92a1 1 0 00.68 0 1 1 0 00.64-.95V7.9a1.49 1.49 0 011.49-1.49h2a1.56 1.56 0 011 .36l.2.16a3.51 3.51 0 004.44 0l.2-.16a1.56 1.56 0 011-.36h2a1.49 1.49 0 011.51 1.49v6.76a1 1 0 00.64.95.88.88 0 00.39.08.92.92 0 00.29 0v1.92a9.44 9.44 0 01-2.1 4.89 9.68 9.68 0 01-1.76 1.74l-.06.05a7.16 7.16 0 01-8.64 0l-.06-.05a9.68 9.68 0 01-1.76-1.74 9.44 9.44 0 01-2.1-4.93zm13 11.83L25 33l-4.8-3.6a3.44 3.44 0 00.8-2.07v-1.18a8.63 8.63 0 008.1 0v1.18a3.44 3.44 0 00.7 2.07zM19 28.58a2.06 2.06 0 00-1.23-.06h-.06l-2.53.76a5.21 5.21 0 014.32-4.1v2.13a1.89 1.89 0 01-.5 1.27zm2 5.88c0-.09-.07-.18-.11-.28v-.05l-.1-.26c-.11-.27-.21-.53-.31-.79l-.09-.21v-.08l-.08-.2v-.06c0-.12-.09-.23-.14-.35L20 32l-.05-.13-.06-.14c-.09-.21-.17-.4-.24-.58l-.12-.28v-.14l4.12 3.08-1.72.74-.72.31zM22.72 39c-.15-.38-.29-.76-.44-1.13l-.66-1.69.28-.18 1.1 1.31zM25 44.9a.54.54 0 00-.07-.13c-.33-.87-.75-2-1.22-3.2l.69-3.74h1.18l.69 3.74zm.86-8.53h-1.73l-.82-1L25 34.7l1.69.71zm1.85 1.45c-.15.37-.29.75-.44 1.13L27 37.31 28.1 36l.28.12zm2.81-7q-.06.12-.12.27l-.12.28c0 .09-.07.17-.1.26v.11l-.05.12L30 32v.05l-.15.39v.06l-.08.2v.08l-.09.21v.06l-.31.77c0 .09-.07.17-.1.26v.05c0 .1-.08.19-.11.28l-.12.31-.72-.31-1.72-.73 4.12-3.09zm1.78-2.24a2 2 0 00-1.28 0 1.89 1.89 0 01-.5-1.25V25.2a5.16 5.16 0 014.32 4.1zM38 38.9a2.33 2.33 0 11-2.33-2.32A2.33 2.33 0 0138 38.9z" fill="#ee5977"/></svg>