<svg xmlns="http://www.w3.org/2000/svg" width="50" height="50"><defs><style>.a{fill:#ee5977}</style></defs><path class="a" d="M.57 40.79l4.81 1.6 1.92 1.92a5.21 5.21 0 002.51 1.39.62.62 0 00.19 0v1.8a2.5 2.5 0 004.61 1.34 2.48 2.48 0 003.33-.84 2.49 2.49 0 003.33-.83 2.51 2.51 0 003.41-1 2.87 2.87 0 00.18-.4h1a2.5 2.5 0 002.5-2.5 2.67 2.67 0 00-.17-.92 2.49 2.49 0 001.75-3.07 1.34 1.34 0 00-.09-.26A2.5 2.5 0 0031.58 36a2.44 2.44 0 00-.58-1 5.83 5.83 0 10-7-9.25 5.63 5.63 0 00-1 1 4.14 4.14 0 00-2.09-.56h-.12v-.09a2.87 2.87 0 00-3.36-1.48 15 15 0 00-6.59 3.93l-9.6-3.54a.83.83 0 00-1.07.49 1 1 0 000 .29V40a.83.83 0 00.4.79zm12.76 6.71a.83.83 0 01-1.66 0v-4.17a.83.83 0 011.66 0zm3.34-.83a.84.84 0 01-.84.83.83.83 0 01-.83-.83V42.5a.83.83 0 01.83-.83.84.84 0 01.84.83zm3.33-.84a.84.84 0 01-.83.84.85.85 0 01-.84-.84v-4.16a.85.85 0 01.84-.84.84.84 0 01.83.84zm2.5 0a.83.83 0 01-.83-.83v-3.33a.83.83 0 111.66 0V45a.83.83 0 01-.83.83zm3.33-1.66H25V42.5h.83a.84.84 0 01.84.83.85.85 0 01-.84.84zm-5-15.84a2.18 2.18 0 00.11-.44 2.45 2.45 0 011.62.68.84.84 0 001.18 0 .66.66 0 00.12-.17 4.17 4.17 0 017.3 4A4.28 4.28 0 0130 33.75a2.48 2.48 0 00-2-2.88 2.18 2.18 0 00-.44 0h-9.32a4.26 4.26 0 011.14-.87 2.84 2.84 0 001.44-1.67zm-3.05-2.06a1.2 1.2 0 01.87 2.23A5.92 5.92 0 0016 31.14l-.08.15a.84.84 0 00.37 1.12.85.85 0 00.38.09H27.5a.83.83 0 01.83.83.84.84 0 01-.83.84h-5.83a.83.83 0 100 1.66h7.5a.84.84 0 01.83.84.83.83 0 01-.83.83h-7.5a.84.84 0 00-.84.83.85.85 0 00.84.84h5.83a.83.83 0 010 1.66h-2.64a2.5 2.5 0 00-3.19-1.52 2.57 2.57 0 00-.84.5 2.48 2.48 0 00-3.52.19 2.51 2.51 0 00-.25.32 2.5 2.5 0 00-3.33.84 2.5 2.5 0 00-3.41.94 2.54 2.54 0 00-.32 1.23V44a3.66 3.66 0 01-1.53-.9l-2.05-2.02a.83.83 0 00-.32-.2L1.67 39.4V31L9 32.48a.83.83 0 00.81-.28l1.36-1.64a13.34 13.34 0 016.6-4.29zm-8.25 3.66l-.69.82-7.17-1.43V27z"/><path class="a" d="M47.5 15.94v-2.61a.83.83 0 00-.83-.83H45v-5h.83a.84.84 0 00.84-.83V2.29A2.3 2.3 0 0044.37 0h-3.75a2.29 2.29 0 00-2.2 1.67h-6.75a.82.82 0 00-.71.39L26.63 7a.83.83 0 00.07 1.17l.08.07 2.75 1.89a.84.84 0 001.08-.13l3.08-3.29h4.64a.84.84 0 00.84.83H40v5h-1.67a.83.83 0 00-.83.83v2.61a3.34 3.34 0 00-2.5 3.19v20a3.33 3.33 0 103.33 3.33h10.84a.83.83 0 00.83-.83v-22.5a3.34 3.34 0 00-2.5-3.23zm.83 18.23h-7.5v-10h7.5zM40 2.29a.62.62 0 01.62-.62h3.75a.63.63 0 01.63.62v3.54h-5zM33.33 5a.83.83 0 00-.6.26l-2.85 3-1.38-1 3.56-4h6.27V5zm8.34 2.5h1.66v5h-1.66zm-2.5 6.67h6.66v1.66h-6.66zm-4.17 30a1.67 1.67 0 111.67-1.67A1.67 1.67 0 0135 44.17zm2.89-3.34a3.45 3.45 0 00-1.22-1.21v-.45h1.66a.85.85 0 00.84-.84.84.84 0 00-.84-.83h-1.66V19.17a1.66 1.66 0 011.66-1.67h8.34a1.66 1.66 0 011.66 1.67v3.33H40a.83.83 0 00-.83.83V35a.83.83 0 00.83.83h8.33v1.67h-6.66a.84.84 0 00-.84.83.85.85 0 00.84.84h6.66v1.66z"/><path class="a" d="M26 17.51a2.68 2.68 0 003.79-3.62l-1.59-2.65a.83.83 0 00-1.13-.24.78.78 0 00-.28.29l-1.59 2.6a2.68 2.68 0 00.8 3.62zm.61-2.76l.88-1.46.88 1.46a1 1 0 01-1.76 1.05 1 1 0 010-1.05zm-5.78 8.58a2.5 2.5 0 10-2.5-2.5 2.5 2.5 0 002.5 2.5zm0-3.33a.84.84 0 01.84.83.85.85 0 01-.84.84.84.84 0 01-.83-.84.83.83 0 01.83-.83zm-7.5-.83A3.34 3.34 0 1010 15.83a3.35 3.35 0 003.33 3.34zm0-5a1.67 1.67 0 11-1.66 1.66 1.66 1.66 0 011.66-1.66zm13.06 14.97a1.66 1.66 0 012.35.14 1.55 1.55 0 01.33.55.85.85 0 001.07.51.83.83 0 00.5-1.07 3.34 3.34 0 00-4.25-2 3.37 3.37 0 00-1.11.66.83.83 0 101.11 1.24zM40 20.83a.83.83 0 000-1.66h-.83a.83.83 0 100 1.66zm3.33 0h2.5a.83.83 0 100-1.66h-2.5a.83.83 0 000 1.66z"/></svg>