<svg xmlns="http://www.w3.org/2000/svg" width="50" height="50"><defs><style>.a{fill:#ee5977}</style></defs><path class="a" d="M12.27 12.3a1 1 0 101 1 1 1 0 00-1-1zm8.79 18.27h-2.93v-2.93a1 1 0 10-1.95 0v2.93h-2.93a1 1 0 100 2h2.93v2.93a1 1 0 001.95 0v-2.98h2.93a1 1 0 100-2z"/><path class="a" d="M47.42 31.44a7.82 7.82 0 00-10.67-2.86l-4 2.29v-8.48a4.9 4.9 0 00-1-2.92L26.92 13v-2.82a2.93 2.93 0 002-2.76V2.93A2.93 2.93 0 0026 0H8.37a2.93 2.93 0 00-2.93 2.93v4.49a2.94 2.94 0 001.95 2.76V13l-4.88 6.47a4.91 4.91 0 00-1 2.92v18.92a4.89 4.89 0 004.89 4.88h15.71A7.8 7.8 0 0032.72 49l11.84-6.83a7.83 7.83 0 002.86-10.73zM7.39 2.93a1 1 0 011-1H26a1 1 0 011 1v4.49a1 1 0 01-1 1H8.37a1 1 0 01-1-1V2.93zM4.07 20.64l5.08-6.77a1 1 0 00.2-.59v-2.93H25v2h-8.82a1 1 0 000 2h9.28l4.78 6.38a3 3 0 01.57 1.43H3.51a2.93 2.93 0 01.56-1.52zm2.35 23.6a2.93 2.93 0 01-2.93-2.93v-1h17.74a7.89 7.89 0 000 3.92zM22 38.38H3.49V24h27.34v8l-5.92 3.42A7.76 7.76 0 0022 38.38zm9.75 8.88a5.86 5.86 0 11-5.85-10.15l5.3-3.06 5.85 10.15zm11.84-6.84l-4.84 2.8-5.87-10.15 4.84-2.79a5.86 5.86 0 115.86 10.14z"/></svg>