<svg xmlns="http://www.w3.org/2000/svg" width="50" height="50"><defs><style>.a{fill:#ee5977}</style></defs><path class="a" d="M49.94 27.87A5.83 5.83 0 0045 22.93v-1.51a7.36 7.36 0 00-7.08-7.59 7.39 7.39 0 00-7.09 7.36v16.43c0 5.25-3.92 9.51-8.75 9.51s-8.75-4.26-8.75-9.51V36.2c1.21 0 2.5-.88 2.5-3.33v-2.1A11.82 11.82 0 0025 19.6v-1.73h-1.67L23.3 7a4.17 4.17 0 00-3.43-4.08 2.5 2.5 0 10-.06 1.7A2.51 2.51 0 0121.63 7v10.84H20v1.76a6.61 6.61 0 01-4.8 6.21 7.46 7.46 0 01-4.58 0 6.63 6.63 0 01-4.79-6.21v-1.73h-2.5V7a2.51 2.51 0 011.85-2.4 2.52 2.52 0 100-1.69A4.15 4.15 0 001.67 7v10.87H0v1.73a11.81 11.81 0 009.17 11.17v2.1c0 2.45 1.29 3.33 2.5 3.33v1.42c0 6.17 4.67 11.18 10.41 11.18s10.42-5 10.42-11.18V21.24a5.7 5.7 0 015.42-5.74 5.69 5.69 0 015.41 5.92v1.51a5.84 5.84 0 106.61 4.94zM17.5 4.53a.83.83 0 11.83-.83.83.83 0 01-.83.83zm-10-1.66a.83.83 0 11-.83.83.83.83 0 01.83-.83zM1.67 19.6v-.07h2.5v.1a8.27 8.27 0 005.95 7.8 9.2 9.2 0 005.59 0 8.29 8.29 0 006-7.8v-.1h1.66v.07c0 4.63-3.57 8.71-8.5 9.7a11.81 11.81 0 01-3.51.17 8.86 8.86 0 01-1.15-.17c-4.97-.99-8.54-5.07-8.54-9.7zm10 14.93c-.75 0-.84-1.16-.84-1.66V31.1h.46c.39 0 .79.06 1.19.06.4 0 .8 0 1.19-.06h.46v1.77c0 .5-.09 1.66-.84 1.66zm32.5-1.66a4.17 4.17 0 114.16-4.17 4.17 4.17 0 01-4.16 4.17z"/><path class="a" d="M44.17 26.2a2.5 2.5 0 102.5 2.5 2.5 2.5 0 00-2.5-2.5zm0 3.33a.83.83 0 110-1.66.83.83 0 010 1.66z"/></svg>